<svg viewBox="0 0 330 200" xmlns="http://www.w3.org/2000/svg"><g><g><g><g><g><line x1="51.5625" y1="177" x2="46.5625" y2="177" style="visibility: inherit;" fill="rgb(0, 0, 0)" stroke="rgb(204, 204, 204)" stroke-width="1px"></line><line x1="51.5625" y1="154.875" x2="46.5625" y2="154.875" style="visibility: inherit;" fill="rgb(0, 0, 0)" stroke="rgb(204, 204, 204)" stroke-width="1px"></line><line x1="51.5625" y1="132.75" x2="46.5625" y2="132.75" style="visibility: inherit;" fill="rgb(0, 0, 0)" stroke="rgb(204, 204, 204)" stroke-width="1px"></line><line x1="51.5625" y1="110.625" x2="46.5625" y2="110.625" style="visibility: inherit;" fill="rgb(0, 0, 0)" stroke="rgb(204, 204, 204)" stroke-width="1px"></line><line x1="51.5625" y1="88.5" x2="46.5625" y2="88.5" style="visibility: inherit;" fill="rgb(0, 0, 0)" stroke="rgb(204, 204, 204)" stroke-width="1px"></line><line x1="51.5625" y1="66.37500000000001" x2="46.5625" y2="66.37500000000001" style="visibility: inherit;" fill="rgb(0, 0, 0)" stroke="rgb(204, 204, 204)" stroke-width="1px"></line><line x1="51.5625" y1="44.24999999999998" x2="46.5625" y2="44.24999999999998" style="visibility: inherit;" fill="rgb(0, 0, 0)" stroke="rgb(204, 204, 204)" stroke-width="1px"></line><line x1="51.5625" y1="22.12500000000002" x2="46.5625" y2="22.12500000000002" style="visibility: inherit;" fill="rgb(0, 0, 0)" stroke="rgb(204, 204, 204)" stroke-width="1px"></line><line x1="51.5625" y1="0" x2="46.5625" y2="0" style="visibility: inherit;" fill="rgb(0, 0, 0)" stroke="rgb(204, 204, 204)" stroke-width="1px"></line></g><g transform="translate(41.5625, 0)"><text x="0" y="177" dx="0em" dy="0.3em" style="text-anchor: end; visibility: hidden; font-family: Roboto, sans-serif; font-size: 12px; font-weight: 200;" fill="rgb(33, 33, 33)" stroke="none" stroke-width="1px">0.1</text><text x="0" y="154.875" dx="0em" dy="0.3em" style="text-anchor: end; visibility: inherit; font-family: Roboto, sans-serif; font-size: 12px; font-weight: 200;" fill="rgb(33, 33, 33)" stroke="none" stroke-width="1px">0.15</text><text x="0" y="132.75" dx="0em" dy="0.3em" style="text-anchor: end; visibility: hidden; font-family: Roboto, sans-serif; font-size: 12px; font-weight: 200;" fill="rgb(33, 33, 33)" stroke="none" stroke-width="1px">0.2</text><text x="0" y="110.625" dx="0em" dy="0.3em" style="text-anchor: end; visibility: inherit; font-family: Roboto, sans-serif; font-size: 12px; font-weight: 200;" fill="rgb(33, 33, 33)" stroke="none" stroke-width="1px">0.25</text><text x="0" y="88.5" dx="0em" dy="0.3em" style="text-anchor: end; visibility: hidden; font-family: Roboto, sans-serif; font-size: 12px; font-weight: 200;" fill="rgb(33, 33, 33)" stroke="none" stroke-width="1px">0.3</text><text x="0" y="66.37500000000001" dx="0em" dy="0.3em" style="text-anchor: end; visibility: inherit; font-family: Roboto, sans-serif; font-size: 12px; font-weight: 200;" fill="rgb(33, 33, 33)" stroke="none" stroke-width="1px">0.35</text><text x="0" y="44.24999999999998" dx="0em" dy="0.3em" style="text-anchor: end; visibility: hidden; font-family: Roboto, sans-serif; font-size: 12px; font-weight: 200;" fill="rgb(33, 33, 33)" stroke="none" stroke-width="1px">0.4</text><text x="0" y="22.12500000000002" dx="0em" dy="0.3em" style="text-anchor: end; visibility: inherit; font-family: Roboto, sans-serif; font-size: 12px; font-weight: 200;" fill="rgb(33, 33, 33)" stroke="none" stroke-width="1px">0.45</text><text x="0" y="0" dx="0em" dy="0.3em" style="text-anchor: end; visibility: hidden; font-family: Roboto, sans-serif; font-size: 12px; font-weight: 200;" fill="rgb(33, 33, 33)" stroke="none" stroke-width="1px">0.5</text></g><line x1="51.5625" y1="0" x2="51.5625" y2="177" fill="rgb(0, 0, 0)" stroke="rgb(204, 204, 204)" stroke-width="1px"></line></g></g><g transform="translate(51, 0)" clip-path="url(#clip_0)"><clipPath id="clip_0"><rect width="278" height="177"></rect></clipPath><g><g><g><line x1="0" y1="0" x2="0" y2="177" fill="rgb(0, 0, 0)" stroke="rgb(66, 66, 66)" stroke-width="1px" opacity="0.25"></line><line x1="21.418269230769234" y1="0" x2="21.418269230769234" y2="177" fill="rgb(0, 0, 0)" stroke="rgb(66, 66, 66)" stroke-width="1px" opacity="0.25"></line><line x1="42.83653846153847" y1="0" x2="42.83653846153847" y2="177" fill="rgb(0, 0, 0)" stroke="rgb(66, 66, 66)" stroke-width="1px" opacity="0.25"></line><line x1="64.2548076923077" y1="0" x2="64.2548076923077" y2="177" fill="rgb(0, 0, 0)" stroke="rgb(66, 66, 66)" stroke-width="1px" opacity="0.25"></line><line x1="85.67307692307693" y1="0" x2="85.67307692307693" y2="177" fill="rgb(0, 0, 0)" stroke="rgb(66, 66, 66)" stroke-width="1px" opacity="0.25"></line><line x1="107.09134615384616" y1="0" x2="107.09134615384616" y2="177" fill="rgb(0, 0, 0)" stroke="rgb(66, 66, 66)" stroke-width="1px" opacity="0.25"></line><line x1="128.5096153846154" y1="0" x2="128.5096153846154" y2="177" fill="rgb(0, 0, 0)" stroke="rgb(66, 66, 66)" stroke-width="1px" opacity="0.25"></line><line x1="149.9278846153846" y1="0" x2="149.9278846153846" y2="177" fill="rgb(0, 0, 0)" stroke="rgb(66, 66, 66)" stroke-width="1px" opacity="0.25"></line><line x1="171.34615384615387" y1="0" x2="171.34615384615387" y2="177" fill="rgb(0, 0, 0)" stroke="rgb(66, 66, 66)" stroke-width="1px" opacity="0.25"></line><line x1="192.76442307692307" y1="0" x2="192.76442307692307" y2="177" fill="rgb(0, 0, 0)" stroke="rgb(66, 66, 66)" stroke-width="1px" opacity="0.25"></line><line x1="214.18269230769232" y1="0" x2="214.18269230769232" y2="177" fill="rgb(0, 0, 0)" stroke="rgb(66, 66, 66)" stroke-width="1px" opacity="0.25"></line><line x1="235.60096153846155" y1="0" x2="235.60096153846155" y2="177" fill="rgb(0, 0, 0)" stroke="rgb(66, 66, 66)" stroke-width="1px" opacity="0.25"></line><line x1="257.0192307692308" y1="0" x2="257.0192307692308" y2="177" fill="rgb(0, 0, 0)" stroke="rgb(66, 66, 66)" stroke-width="1px" opacity="0.25"></line><line x1="278.4375" y1="0" x2="278.4375" y2="177" fill="rgb(0, 0, 0)" stroke="rgb(66, 66, 66)" stroke-width="1px" opacity="0.25"></line></g><g><line x1="0" y1="177" x2="278.4375" y2="177" fill="rgb(0, 0, 0)" stroke="rgb(66, 66, 66)" stroke-width="1px" opacity="0.25"></line><line x1="0" y1="154.875" x2="278.4375" y2="154.875" fill="rgb(0, 0, 0)" stroke="rgb(66, 66, 66)" stroke-width="1px" opacity="0.25"></line><line x1="0" y1="132.75" x2="278.4375" y2="132.75" fill="rgb(0, 0, 0)" stroke="rgb(66, 66, 66)" stroke-width="1px" opacity="0.25"></line><line x1="0" y1="110.625" x2="278.4375" y2="110.625" fill="rgb(0, 0, 0)" stroke="rgb(66, 66, 66)" stroke-width="1px" opacity="0.25"></line><line x1="0" y1="88.5" x2="278.4375" y2="88.5" fill="rgb(0, 0, 0)" stroke="rgb(66, 66, 66)" stroke-width="1px" opacity="0.25"></line><line x1="0" y1="66.37500000000001" x2="278.4375" y2="66.37500000000001" fill="rgb(0, 0, 0)" stroke="rgb(66, 66, 66)" stroke-width="1px" opacity="0.25"></line><line x1="0" y1="44.24999999999998" x2="278.4375" y2="44.24999999999998" fill="rgb(0, 0, 0)" stroke="rgb(66, 66, 66)" stroke-width="1px" opacity="0.25"></line><line x1="0" y1="22.12500000000002" x2="278.4375" y2="22.12500000000002" fill="rgb(0, 0, 0)" stroke="rgb(66, 66, 66)" stroke-width="1px" opacity="0.25"></line><line x1="0" y1="0" x2="278.4375" y2="0" fill="rgb(0, 0, 0)" stroke="rgb(66, 66, 66)" stroke-width="1px" opacity="0.25"></line></g></g></g><g><g><line x1="0" y1="221.25" x2="278.4375" y2="221.25" fill="rgb(0, 0, 0)" stroke="rgb(153, 153, 153)" stroke-width="1.5px"></line></g></g><g><g><line x1="21.418269230769234" y1="0" x2="21.418269230769234" y2="177" fill="rgb(0, 0, 0)" stroke="rgb(153, 153, 153)" stroke-width="1.5px"></line></g></g><g><g><g><g><g><path stroke="rgb(238, 51, 119)" stroke-width="2px" d="M25.530576923076925,-0.35589500668678054L25.787596153846152,2.0263936435796936L26.344471153846154,4.054474904095586L26.665745192307693,5.746115731920144L26.68716346153846,6.812180139135482L26.987019230769228,8.228588829942728L27.244038461538462,9.780050415209804L27.30829326923077,10.88510043081022L27.47963942307692,11.754962629218008L27.54389423076923,12.456045239239891L27.758076923076924,13.549849489464899L28.20786057692308,15.074778595406734L28.272115384615383,16.015741651201886L28.33637019230769,16.525448735358037L28.850408653846152,18.099950106109475L29.107427884615383,19.51135749757875L29.27877403846154,20.856310659763817L29.53579326923077,22.255006914330515L29.707139423076924,23.45514091697561L29.7928125,24.09357996728988L30.04983173076923,24.345116269832857L30.328269230769234,24.908143015807077L30.778052884615388,26.546011915391183L30.799471153846152,27.567615360862224L30.842307692307692,28.31138187718776L30.992235576923076,28.937266463581217L31.313509615384614,29.889777925437464L31.399182692307694,30.5145571392126L31.61336538461538,30.962436095573185L31.72045673076923,31.26677506906343L31.741875,31.445132069247652L31.870384615384616,31.628449304378165L32.363004807692306,32.36353373139033L32.40584134615384,32.77002779012398L32.427259615384614,33.09714807489851L32.51293269230769,33.391055425521124L32.855624999999996,34.22141153247194L32.96271634615385,34.962302080578105L33.00555288461538,35.35840653287571L33.262572115384614,35.79879842941293L33.348245192307694,36.20148150768478L33.47675480769231,36.527248881140984L34.07646634615384,37.22015867345309L34.16213942307692,37.85344600506295L34.20497596153846,38.396168320343904L34.911778846153844,39.32922450838449L35.083125,40.207869339811595L35.21163461538462,40.84680207301841L35.23305288461539,41.235014723120145L35.53290865384615,41.73846070550561L35.72567307692308,42.17230334629228L35.89701923076923,42.347153751549776L36.88225961538462,43.191573070584326L36.96793269230769,43.713131843268044L37.37487980769231,44.16641405121037L37.8032451923077,44.68107080993383L38.03884615384615,45.18614802680809L38.06026442307692,45.477663182749744L38.18877403846154,45.782828124484055L38.317283653846154,46.02432673699897L38.65997596153846,46.44131097511793L38.68139423076923,46.715312917925964L38.98125,47.27086670392637L39.2596875,47.751566959583094L39.79514423076923,48.06884142348963L39.987908653846155,48.40449573153136L40.095,48.671857604705544L40.41627403846154,48.89231490452483L40.737548076923076,48.94545884346603L41.35867788461538,49.15171597251675L41.61569711538461,49.44512515574323L41.765625,49.72388568109049L42.83653846153847,50.5604723250018L42.90079326923077,50.9402814301936L42.943629807692304,51.21069403249551L43.17923076923077,51.344598959437164L43.32915865384616,51.50125550064513L43.41483173076923,51.63685871263187L43.45766826923077,51.80240981638337L43.650432692307696,51.85763611113968L44.05737980769231,52.19809403250186L44.35723557692308,52.498400361714154L44.378653846153846,52.663940728531706L44.50716346153847,52.926922166840086L44.699927884615384,53.10850660472859L44.956947115384615,53.47561103385541L45.042620192307695,53.72497592736395L45.08545673076923,53.88040792566009L45.19254807692308,54.068031797537024L45.23538461538462,54.18218334897088L45.535240384615385,54.313151510856926L45.685168269230765,54.4373770787134L45.98502403846154,54.69973446332301L46.09211538461539,54.82982433678441L46.113533653846154,54.90718195940095L46.370552884615385,55.09958773914004L46.58473557692307,55.387735069173715L46.627572115384616,55.503020346390095L46.79891826923077,55.63468984378985L46.9916826923077,55.74276740320687L47.01310096153846,55.801099300194764L47.527139423076925,55.990408337002386L47.67706730769231,56.14192108862719L48.12685096153846,56.28249296875668L48.23394230769231,56.426311846565454L48.255360576923074,56.50227997660113L48.29819711538462,56.588641965147694L48.362451923076925,56.70552641973305L48.448125,56.823622768076746L48.57663461538462,56.992743483157426L48.66230769230769,57.08809689937322L48.76939903846154,57.212892390837006L49.24060096153846,57.327121268242415L49.81889423076923,57.445164573508386L50.247259615384614,57.51156482238641L50.56853365384615,57.67887561404149L50.654206730769225,57.843986474772926L50.88980769230769,58.02218343216219L50.91122596153846,58.09906569360515L51.789375,58.15952725552811L52.23915865384616,58.32208268251L52.26057692307692,58.45090730432257L52.64610576923077,58.77180208828203L52.667524038461536,58.98150911966655L53.01021634615385,59.14591476940924L53.05305288461539,59.22037750854383L53.43858173076923,59.39545342549256L53.60992788461539,59.59359237089502L53.78127403846154,59.71685399731843L53.84552884615385,59.76070648503811L54.59516826923077,60.063855833247345L54.659423076923076,60.24293386127655L54.95927884615384,60.28627346865003L55.02353365384615,60.32177225298683L55.130625,60.39021429745553L55.38764423076923,60.46838395195125L55.6232451923077,60.51628272173954L55.730336538461536,60.54932639263957L55.77317307692307,60.55246773518854L56.28721153846154,60.51542295907577L56.458557692307686,60.46974339422369L57.20819711538462,60.67242636285295L57.40096153846154,60.9113840401296L57.52947115384615,61.14499298573282L57.893581730769235,61.3123193850562L57.93641826923077,61.412414549019616L58.00067307692308,61.45907311929861L58.08634615384616,61.5258659678316L59.457115384615385,62.032273754931424L59.49995192307692,62.337073204193686L59.75697115384616,62.52540723518976L59.82122596153847,62.63940463087828L59.99257211538461,62.748462853562046L60.99923076923077,63.027345834810255L61.08490384615384,63.18234264769478L61.27766826923077,63.30005416225388L61.42759615384615,63.42118402690289L61.87737980769231,63.55923515779136L62.112980769230774,63.67982964052175L62.17723557692308,63.76371750434288L62.3057451923077,63.85667231202156L62.32716346153846,63.888327846050444L62.6484375,63.93088464088451L62.90545673076923,63.946211571378754L62.99112980769231,63.96309342079358L63.098221153846154,63.985671556550244L63.1410576923077,64.00410837325931L63.41949519230769,64.1258612954228L63.44091346153846,64.19786859653048L63.54800480769231,64.27150979102643L63.78360576923077,64.44200992262954L63.82644230769231,64.55080881522058L65.77550480769231,64.9708906698582L65.96826923076924,65.23714538743242L66.18245192307693,65.40669391352024L66.41805288461538,65.61124881981662L66.71790865384615,65.7951296918324L66.73932692307693,65.89150053577015L66.825,65.94424848149053L66.84641826923077,65.99005010360382L66.99634615384616,66.03671101709546L67.25336538461538,66.09470127809253L67.89591346153847,66.23350810282355L68.4313701923077,66.43792227669313L68.75264423076922,66.57992479660365L68.88115384615385,66.71780256902127L69.39519230769231,66.81314178392262L69.50228365384616,66.86806123307329L71.04439903846155,67.2142325094401L71.10865384615384,67.44943918294064L71.60127403846154,67.65116778913946L71.96538461538462,67.90885938944704L72.71502403846155,68.31529282773903L73.61459134615384,68.64220793989521L73.7216826923077,68.8602219280435L74.00012019230769,69.06759710650641L74.17146634615385,69.20719842041133L74.23572115384616,69.32741481020808L74.66408653846153,69.49230571362232L74.94252403846153,69.62553310258899L75.0496153846154,69.72265024699998L75.34947115384615,69.7643306238546L75.3923076923077,69.805902384704L75.58507211538462,69.85387613951305L75.62790865384615,69.88368374454463L76.39896634615386,70.02391691415002L76.63456730769231,70.16727409010224L76.65598557692307,70.24607218053993L76.87016826923076,70.312931875867L77.10576923076924,70.41623705058238L77.25569711538462,70.47897448199356L77.53413461538462,70.54284429584365L77.70548076923076,70.60307858010782L77.87682692307692,70.65959124339014L77.9625,70.67141764505143L78.04817307692308,70.72088764991426L78.45512019230769,70.89096934727466L78.62646634615385,70.98630855161929L78.71213942307692,71.06193768786778L78.86206730769231,71.12781386260622L78.92632211538462,71.17151210119982L78.96915865384615,71.19315233475363L79.03341346153846,71.198983559885L79.11908653846153,71.21469394557379L79.31185096153847,71.25930977578582L79.44036057692308,71.33382867405187L79.54745192307692,71.37261617558819L79.63312499999999,71.42016955243122L79.89014423076924,71.45451464072805L79.91156249999999,71.478307800388L79.99723557692307,71.52221343332269L80.10432692307693,71.56217161663615L80.12574519230769,71.58539220004228L80.4041826923077,71.65930142586798L80.42560096153846,71.6938776408754L80.44701923076924,71.71322021693719L80.55411057692308,71.7401918697997L80.66120192307692,71.78229099086785L80.72545673076924,71.80467558247962L80.93963942307693,71.83367817010354L81.0895673076923,71.8632016980998L81.66786057692308,71.90010630514337L82.1390625,71.98416187421152L82.3532451923077,72.1109721008281L82.71735576923076,72.17967849632146L82.73877403846154,72.22907860076454L84.00245192307693,72.43655511138456L84.28088942307693,72.59248535870084L84.66641826923077,72.66666311644657L84.73067307692308,72.71820136084045L84.88060096153845,72.76319803699187L84.94485576923077,72.79137764516074L85.11620192307693,72.85784941400645L85.60882211538461,72.99939248851274L86.10144230769231,73.14852049285969L86.42271634615385,73.319464566319L86.70115384615384,73.40579980135487L87.47221153846155,73.49826072764712L87.49362980769232,73.56121197409819L87.90057692307693,73.6678110663139L87.92199519230769,73.74278474474211L87.94341346153846,73.80214863195572L88.15759615384616,73.85184596881007L88.24326923076923,73.89871848168812L88.26468750000001,73.92649383868479L88.28610576923077,73.93997822121207L88.43603365384615,73.96796091744555L88.80014423076923,73.99814906328473L89.39985576923077,74.05274920230838L89.8068028846154,74.14158792832932L89.95673076923077,74.22125566923285L90.06382211538461,74.27585052802361L90.34225961538462,74.38264222356199L90.40651442307691,74.44474966175864L90.59927884615385,74.50347814469046L90.85629807692307,74.57213242953127L91.37033653846153,74.70254126253786L91.43459134615385,74.81342305578629L92.24848557692307,74.9502891292443L92.97670673076924,75.19855579675854L93.31939903846154,75.33829507792963L93.70492788461539,75.47474105694874L93.91911057692307,75.58039894425264L93.94052884615385,75.6454131050312L94.11187500000001,75.72088775297424L94.34747596153846,75.75003100788845L94.64733173076924,75.72303279254588L94.81867788461538,75.69628384121509L94.99002403846154,75.70723197703514L95.56831730769231,75.7254322579202L96.03951923076923,75.79201961819511L96.0609375,75.8227513150226L96.08235576923076,75.84302076195782L96.21086538461537,75.8511786967224L96.25370192307692,75.87659325061477L96.40362980769231,75.9368747523918L96.9605048076923,75.98405260154571L97.34603365384615,76.06235059087851L97.81723557692308,76.10599557748662L97.88149038461538,76.130204440303L98.03141826923077,76.1709465629741L98.2884375,76.21117994468716L98.54545673076922,76.27049374748059L98.82389423076923,76.32034038405885L98.84531249999999,76.34533733070656L98.88814903846153,76.36929774249056L99.18800480769231,76.41136779763973L99.70204326923077,76.49375930058169L99.76629807692308,76.54424920455936L99.80913461538461,76.56693130598262L99.85197115384615,76.59241461673852L99.91622596153847,76.61877685141253L100.00189903846154,76.6356280943852L100.06615384615384,76.65157827741513L100.47310096153846,76.73137460950974L100.68728365384615,76.75849524023512L100.94430288461538,76.81055856873022L101.05139423076922,76.8604912050332L101.65110576923077,76.989594619737L101.67252403846155,77.07473708466645L101.71536057692309,77.12933572099182L101.82245192307693,64.83562840202792L101.8438701923077,63.31928719985094L101.99379807692308,77.85952040498022L102.03663461538461,88.43200837936739L102.44358173076922,101.45656115035261L102.465,109.0393215639594L102.55067307692308,113.86633261878508L102.61492788461538,116.43815508389007L103.10754807692307,117.71276632489878L103.8571875,118.94828824426007L103.90002403846154,119.69751127496522L104.11420673076923,120.57060474416711L104.30697115384616,120.96328976309955L105.01377403846155,120.86571261320508L105.20653846153846,119.90970495363472L105.29221153846154,119.35430178356407L105.42072115384616,118.65572316534661L105.67774038461539,118.05655832938757L105.74199519230768,117.07663372667078L106.10610576923078,116.58884615010884L106.38454326923078,115.95246707085884L106.57730769230768,115.47653606345725L106.7058173076923,114.57687385863346L107.36978365384616,113.91028636983802L107.41262019230768,113.53554842944008L107.60538461538462,113.33973932608998L107.84098557692307,113.31749155131006L107.96949519230769,113.17652454380408L108.11942307692307,113.29053795578609L108.91189903846153,114.10148029769975L109.44735576923078,114.65891283896876L109.57586538461538,115.03719451813288L109.704375,115.41301642530198L109.7686298076923,115.651404334146L110.23983173076924,115.97814197721374L110.45401442307691,116.28112486232693L110.98947115384615,116.81516928213463L111.22507211538462,117.2066107704498L111.54634615384614,117.738332185999L111.84620192307692,117.92783713868585L111.97471153846153,118.03627301175192L112.38165865384615,117.98144144665477L112.44591346153847,118.04173085302877L112.51016826923076,118.22581580704909L112.61725961538463,118.42531687871492L113.13129807692307,118.9099902621262L113.92377403846153,119.49029481180625L114.03086538461538,119.97127594511579L114.13795673076923,120.11460664547008L114.26646634615385,120.11469887302232L115.16603365384616,120.14808700445839L115.23028846153846,120.18769017436236L115.57298076923077,120.20078864144165L116.15127403846154,120.37632449833679L116.19411057692308,120.46204407136517L116.42971153846153,120.45045262051153L116.60105769230769,120.58451725824195L116.83665865384616,120.66688669492909L117.09367788461539,120.76782147747345L117.58629807692309,120.90381764270106L117.7148076923077,121.03251855312134L118.35735576923076,121.28402282737702L118.57153846153845,121.60186102952368L118.65721153846154,121.77908893505219L119.19266826923077,122.13819629597357L119.27834134615384,122.41571594266708L119.40685096153845,122.70241885774502L120.09223557692307,122.89009947713119L120.15649038461538,123.02787492654268L120.2207451923077,123.13437269617046L121.01322115384616,123.04774100475863L121.1203125,123.02532051440095L121.20598557692307,123.02460473439704L121.22740384615385,123.02806558705336L121.39874999999999,122.9508797824202L121.63435096153846,123.05423882602561L121.80569711538462,123.25252625047509L121.89137019230769,123.4291677635869L121.93420673076923,123.55196413171058L122.06271634615385,123.5665038035617L122.23406250000001,123.57603204585945L122.25548076923077,123.60143269501826L122.44824519230768,123.6235174113673L122.74810096153846,123.63221590662968L122.89802884615385,123.68296889927969L123.36923076923077,123.55759423057428L123.51915865384616,123.5046642636072L123.64766826923078,123.45494223325323L123.73334134615385,123.46043840163271L123.75475961538461,123.47966663606955L124.33305288461538,123.63643518130777L124.39730769230769,123.7711270811605L124.4615625,123.82819148376272L124.54723557692307,123.90093506857565L124.88992788461539,124.04622013261803L124.93276442307692,124.15210163528258L124.97560096153846,124.20741206964573L124.99701923076923,124.24217028356028L125.0184375,124.287915351608L125.18978365384616,124.35995469845452L126.00367788461539,124.47362871680927L126.2821153846154,124.54555464812678L126.60338942307692,124.65486939566472L127.01033653846153,124.85110444317543L127.09600961538462,125.00811265403199L127.24593750000001,125.11748851236206L127.33161057692307,125.1604710423738L127.43870192307692,125.14682457767667L128.10266826923078,125.19640862001623L128.33826923076924,125.23158175679235L129.02365384615385,125.31742057461851L129.5376923076923,125.3243974969346L129.83754807692307,125.35451560470813L129.94463942307692,125.38723517509314L130.22307692307692,125.30995968909272L130.24449519230768,125.28204111117844L130.41584134615385,125.25799198662475L130.45867788461538,125.27643110582375L130.56576923076923,125.22609872358528L131.3582451923077,125.25559659443789L131.44391826923078,125.2642697730213L131.52959134615386,125.28947915962631L131.7651923076923,125.18129349548397L131.78661057692307,125.10334490715728L131.82944711538462,125.03954801845113L131.8508653846154,124.97723957233165L132.53625,124.78683698375544L132.77185096153846,124.700837839839L132.8146875,124.68298259925672L132.92177884615384,124.68040088446038L132.96461538461537,124.70162407833992L133.07170673076925,124.70486297475493L133.20021634615387,124.72891124646183L133.35014423076922,124.73459160363863L133.6285817307692,124.71686812362785L133.94985576923077,124.72714945448469L134.1426201923077,124.7067954973759L134.206875,124.69061895229707L134.84942307692307,124.74042306255278L135.34204326923077,124.58939638680803L135.36346153846154,124.49706336526027L135.42771634615383,124.45004554491014L135.4705528846154,124.42745273948175L135.55622596153847,124.41345131778994L135.6847355769231,124.4247236185329L136.2844471153846,124.4568466146622L136.45579326923078,124.40189045666659L136.94841346153845,124.2751771777809L137.1411778846154,124.23832408010605L137.16259615384615,124.23570602488306L137.46245192307694,124.19782201559417L137.61237980769232,124.18745096094057L138.06216346153846,124.18507117370751L138.2549278846154,124.19443861150732L138.3191826923077,124.17258945407863L138.36201923076922,124.16558050991532L139.32584134615385,124.24596258331202L139.43293269230767,124.30136584239519L139.45435096153847,124.32646318076442L139.6899519230769,124.31542346655364L139.73278846153846,124.33022409545801L140.20399038461537,124.36996592502251L140.67519230769233,124.38052326989444L141.46766826923078,124.38862744302912L142.51716346153847,124.35566811759092L142.81701923076923,124.32933304607164L144.01644230769233,124.36061675190503L144.16637019230768,124.43242193662869L144.38055288461538,124.51400999071448L144.63757211538461,124.51411358322052L144.7018269230769,124.51141163292735L144.74466346153847,124.52723492433553L144.76608173076923,124.5381320521231L145.25870192307693,124.54838921159478L145.4300480769231,124.59228357392533L146.35103365384614,124.74612775872936L147.0792548076923,124.84872845370049L147.35769230769233,124.92704230581806L147.37911057692307,124.95543356558733L147.4219471153846,124.9578380782667L148.83555288461537,124.91227252478976L148.94264423076925,124.87269780454386L149.00689903846154,124.85031392525046L149.17824519230768,124.89327874094491L149.54235576923077,124.87113151735214L149.7351201923077,124.831858478702L149.88504807692306,124.83621792657189L150.0135576923077,124.84711800016768L150.1420673076923,124.88138613997585L150.913125,124.91860550879649L151.08447115384615,124.935809819336L151.57709134615385,125.05347888078407L151.61992788461538,125.10806802157232L151.64134615384614,125.14675853099627L152.32673076923078,125.17651121286275L152.3695673076923,125.19695548991992L152.7979326923077,125.33177375066658L152.90502403846153,125.41436589818228L152.94786057692306,125.47519124782697L152.99069711538462,125.5054856821097L153.5475721153846,125.4502922138093L154.34004807692307,125.45946589651813L154.4685576923077,125.44868350948758L154.68274038461539,125.47841647819202L154.76841346153847,125.48823033008289L154.85408653846153,125.48433085819073L155.1539423076923,125.55813332223883L155.32528846153846,125.60735221102233L155.925,125.60387516256804L155.96783653846154,125.61813619277856L156.11776442307692,125.66959183837166L156.28911057692306,125.7253922905039L156.31052884615383,125.76974699708886L156.37478365384615,125.78591793664137L156.67463942307694,125.80375720493699L156.9744951923077,125.82507408817236L157.06016826923076,125.81068472361339L157.1030048076923,125.81593757150037L157.3814423076923,125.84097530113138L157.61704326923075,125.87200495997952L157.63846153846154,125.88652670919828L157.7455528846154,125.87438500249345L157.78838942307692,125.8625212688682L157.85264423076924,125.8651617991589L158.6451201923077,125.95379434988871L159.03064903846152,125.97627595344767L159.43759615384616,125.99021065401784L159.56610576923075,125.99001276891083L159.78028846153848,126.00577445865066L160.0801442307692,125.98079092526669L160.46567307692308,125.97907800808095L160.52992788461538,125.98929658135498L161.25814903846154,125.96556852519944L161.32240384615383,125.95454417324326L161.51516826923077,125.94823023770013L161.64367788461539,125.93188207503414L161.7507692307692,125.88953427169476L162.0292067307692,125.83811451014132L162.13629807692308,125.82977640042454L162.4789903846154,125.85075032657237L162.58608173076922,125.87398756710202L162.69317307692307,125.91121644775576L162.77884615384616,125.92065901160542L163.12153846153845,125.87278055012408L163.4213942307692,125.83153323447813L163.8497596153846,125.82893725404806L164.10677884615384,125.8602139721493L164.36379807692308,125.88642040611387L165.1134375,125.83980682326006L165.26336538461538,125.80598341126827L165.37045673076923,125.79614971101039L165.41329326923076,125.803967157124L165.45612980769232,125.82654782481106L165.58463942307694,125.84963080791898L165.6703125,125.86391314869087L166.0130048076923,125.89565831425763L166.24860576923078,125.92305839361535L166.5698798076923,125.9714518207418L166.7626442307692,126.02975100088759L167.12675480769232,126.0525214958706L167.5337019230769,126.05691296091784L167.74788461538463,126.05511419314809L167.87639423076922,126.07444131278197L167.98348557692307,126.08697653653145L168.02632211538463,126.10368937755777L168.15483173076922,126.12913330200406L168.34759615384615,126.17931495489533L168.69028846153844,126.24692136276873L169.52560096153846,126.30382191675373L169.5684375,126.32826941631714L169.6326923076923,126.33360905899096L169.86829326923078,126.32775828810624L170.01822115384613,126.34269453926142L170.8321153846154,126.37649367954288L171.1748076923077,126.39575508657666L171.28189903846155,126.42029373302205L171.32473557692308,126.44805938574162L171.3889903846154,126.47679064019016L171.75310096153845,126.52706151213346L171.96728365384615,126.58004109565077L171.98870192307692,126.61145695748125L172.30997596153844,126.63230570377227L172.52415865384614,126.64518947733234L173.23096153846154,126.74155047734256L173.72358173076924,126.77420527457998L173.87350961538462,126.78842555415514L173.9377644230769,126.79063034613063L174.06627403846156,126.81685391103703L174.88016826923078,126.87166533193277L175.15860576923077,126.87190250349812L175.18002403846154,126.87119025464517L175.2228605769231,126.87930578574934L175.35137019230768,126.88147429874776L175.415625,126.87616318017983L175.80115384615385,126.87596744031157L176.1866826923077,126.89324170786409L176.70072115384613,126.94035463296335L176.78639423076922,126.97454886295176L177.04341346153845,126.96712366734612L177.2361778846154,126.94497880038422L177.8358894230769,126.96315468369006L177.96439903846155,126.9769931198244L178.52127403846154,126.94149512714652L178.6069471153846,126.92771058479852L178.64978365384616,126.92976305603925L178.92822115384615,126.9353332353827L179.0353125,126.93270930547692L179.2280769230769,126.95059973835454L179.44225961538461,126.92653475010104L179.6136057692308,126.92615102412526L180.29899038461537,126.9337383549346L180.44891826923077,126.95735464340054L180.68451923076924,127.01730096248153L180.7059375,127.05461915676214L181.30564903846155,127.07395847943077L181.3913221153846,127.10286147181183L181.43415865384614,127.12199677100178L181.69117788461537,127.15113605004785L182.20521634615383,130.21927720273877L182.46223557692306,136.97694959321825L182.63358173076924,143.0608392332745L182.76209134615382,145.53318655936434L182.99769230769232,145.09654104082892L183.16903846153846,144.12805303555194L183.21187500000002,143.10920025182645L183.3403846153846,143.02820390625524L183.46889423076922,143.62075468101338L184.06860576923077,145.94384317218206L184.21853365384615,147.1339252270397L184.26137019230768,147.89977770609477L184.30420673076924,148.56032250262987L184.36846153846156,148.78848202787452L185.03242788461537,147.45095940090783L185.05384615384614,146.7127745846365L185.16093750000002,146.3276250660094L185.46079326923078,145.62878429887726L185.5036298076923,145.010263770807L185.52504807692307,144.7243112325598L186.81014423076925,143.9626189470249L186.93865384615384,143.36567599475129L187.00290865384616,142.94503299236146L187.55978365384615,142.685694726347L187.58120192307692,142.42259759130422L187.64545673076924,142.32093927813975L187.666875,142.21914735468272L188.37367788461538,142.04076122958688L188.39509615384617,141.95666794013513L188.95197115384616,142.2744288386794L189.31608173076924,142.63408354472475L189.4017548076923,142.90243394107435L189.57310096153847,143.1996344144989L189.6801923076923,143.52507211958462L189.70161057692306,143.74386129197532L189.8301201923077,143.94571444342765L190.25848557692308,144.4637577292337L190.53692307692307,144.93714899164522L190.6654326923077,145.20975807513048L191.008125,145.55457290533334L191.20088942307692,146.06549761607138L191.24372596153847,146.2701497788065L191.26514423076924,146.45168623714645L192.48598557692307,146.53212832742335L193.34271634615385,147.11167687078358L193.40697115384617,147.52036402463938L193.42838942307694,147.75637933516518L193.47122596153847,147.91878525259506L193.77108173076925,147.82012762929443L193.9424278846154,147.7964470672932L194.43504807692307,147.869257950087L194.45646634615383,147.9401899119017L194.8419951923077,147.73054817258105L195.3988701923077,147.42951143645516L195.57021634615384,147.32165289737745L195.82723557692307,147.35249987434128L195.87007211538463,147.3550485145496L196.2770192307692,147.32053618558925L196.29843749999998,147.3237430508654L196.74822115384617,147.22290995453125L196.89814903846153,147.28527301689581L197.0694951923077,147.25595141435022L197.09091346153843,147.26031041136L197.4121875,147.19214307362208L197.69062499999998,147.34442412611466L197.71204326923078,147.44170340750588L198.2475,147.47675015243274L198.71870192307694,147.6368037534498L198.84721153846152,147.85178741352217L198.91146634615384,148.01618084631238L198.9328846153846,148.1298190374486L199.0185576923077,148.2426918458529L199.12564903846155,148.30807606348918L199.2327403846154,148.35304316860154L200.26081730769232,148.66816563595364L200.32507211538461,148.864407856399L200.56067307692308,149.04253624030005L200.7534375,149.31480069248707L200.86052884615384,149.46098920279044L201.28889423076922,149.46737746342004L201.58875,149.41013897922028L201.69584134615386,149.3626980362319L202.5739903846154,149.53262663650412L202.65966346153846,149.58928463916718L203.30221153846153,149.5974424365803L203.58064903846153,149.5669180532482L203.9447596153846,149.59531364620844L204.13752403846155,149.64461824465465L204.33028846153846,149.64637795787257L204.5230528846154,149.7152493280244L204.65156249999998,149.77575736535027L204.67298076923078,149.79495005185862L204.84432692307692,149.85631451830542L205.65822115384614,150.0241354604082L205.7653125,150.0754539221237L206.02233173076922,150.1405932336873L206.06516826923078,150.17778309165396L206.08658653846155,150.2044119654832L206.21509615384613,150.29801371507273L206.90048076923077,150.39945282228248L206.98615384615385,150.4732295136896L207.6501201923077,150.67739430136962L207.7786298076923,150.75967121462514L208.0570673076923,150.86596264446075L208.16415865384613,150.94558627309974L208.29266826923077,151.01071523667918L208.72103365384615,151.00963923061815L208.89237980769232,151.04113163188057L208.93521634615385,151.08836970707748L209.40641826923078,151.08154932845218L209.4492548076923,151.04968680553785L209.66343750000001,151.04326360591145L209.89903846153845,151.02452360491685L209.98471153846154,151.03009370208227L210.3488221153846,151.01752896452214L210.41307692307691,151.0007799526707L210.6272596153846,150.995417392889L211.31264423076922,150.9675972054239L211.4197355769231,150.9158051693342L211.56966346153845,150.91624022626291L211.80526442307692,150.89278217317707L211.93377403846154,150.82293201185493L212.08370192307692,150.7703057300879L212.42639423076923,150.62926556896173L212.51206730769232,150.52020234603287L212.91901442307693,150.4110134705222L213.47588942307692,150.49515220906235L213.5615625,150.53158546022115L213.75432692307692,150.4610193045827L213.88283653846156,150.422290356272L213.90425480769233,150.36559359211535L213.98992788461538,150.34571256326922L214.3326201923077,150.34738819949203L214.91091346153846,150.4044432112716L215.25360576923077,150.47582020873682L215.44637019230768,150.43176697501454L215.59629807692306,150.32097705786774L215.7033894230769,150.26164811006396L216.71004807692307,150.10383664757737L216.79572115384616,150.0086222689791L217.4596875,149.87272453912757L217.63103365384615,149.77200596099294L217.6524519230769,149.7093039218497L217.69528846153847,149.6869670429177L217.71670673076923,149.66242409219427L218.20932692307693,149.6739124892359L218.27358173076922,149.67290356088907L218.33783653846154,149.67025941210525L218.48776442307692,149.66637301801168L218.55201923076925,149.64123994623733L218.65911057692307,149.6000909985013L218.74478365384616,149.56889226620834L218.93754807692306,149.5653782462206L218.95896634615383,149.55792888552705L219.04463942307692,149.54416997462965L219.21598557692306,149.569843499246L219.60151442307694,149.62189575337334L219.6229326923077,149.6504764127908L220.43682692307692,149.70751444209682L220.69384615384615,149.74616299396197L220.7366826923077,149.72494708195592L220.88661057692306,149.74923492488423L221.1007932692308,149.7639500559399L221.12221153846153,149.73963624006686L221.20788461538461,149.72808108190404L221.25072115384614,149.73561470484557L221.33639423076923,149.7532063560237L221.40064903846152,149.77388409295975L221.59341346153846,149.81207235168992L221.74334134615384,149.81842177219139L221.89326923076925,149.79158361021845L222.02177884615384,149.78032581069573L222.0431971153846,149.7848200920731L222.17170673076924,149.77393086990776L222.27879807692307,149.70885262633L222.4929807692308,149.7011840834894L222.70716346153847,149.70384664801824L222.83567307692306,149.7231893239502L223.1569471153846,149.70847262430695L223.58531250000001,149.705922505191L223.6495673076923,149.71781206186475L223.69240384615384,149.72304679188647L223.97084134615383,149.76966954608866L224.1421875,149.74617755317755L224.27069711538462,149.7591405266766L224.31353365384615,149.77754482056164L224.65622596153847,149.8083502258388L224.67764423076923,149.8352207365947L224.69906250000003,149.84980537732343L225.34161057692307,149.8447699203485L225.72713942307692,149.81752052035296L225.91990384615383,149.81324274317242L226.11266826923077,149.84480276093376L226.32685096153847,149.85899917415077L226.4339423076923,149.86848498661098L226.90514423076925,149.78029710220562L227.0764903846154,149.73751503030817L227.20499999999998,149.7248170393727L227.48343749999998,149.7276770542873L228.19024038461538,149.68182301347332L228.51151442307693,149.68232353523302L228.57576923076925,149.67076826092557L228.5971875,149.67438248096082L228.6614423076923,149.70023317514762L228.85420673076925,149.63227972912134L228.9398798076923,149.5898486705264L229.0255528846154,149.58418715188742L229.28257211538462,149.54038893097547L229.3039903846154,149.51956699737255L229.45391826923077,149.5279998060962L229.9679567307692,149.37158085268143L230.01079326923076,149.28327879227044L230.3320673076923,149.23445953975227L230.35348557692308,149.21061707466905L230.4819951923077,149.2046566631202L230.54625,149.2133052543285L230.73901442307692,149.1908929136683L231.0817067307692,149.2065846703821L231.14596153846153,149.21841831698262L231.29588942307694,149.2281533729687L231.61716346153844,149.29074297557202L231.85276442307693,149.37714597707944L232.13120192307693,149.42200102583143L232.40963942307692,149.44286097988828L232.77374999999998,149.48990453723277L232.9236778846154,149.52991240884785L233.330625,149.63898196021273L233.35204326923076,149.6996076059315L233.50197115384617,149.76035354447205L233.56622596153844,149.78483474500084L233.63048076923076,149.8086228594011L233.8232451923077,149.78943897037664L233.84466346153846,149.77340531497575L234.25161057692307,149.7742903062664L234.42295673076922,149.787262414632L234.5086298076923,149.79467642887698L234.53004807692307,149.8052280252234L234.55146634615386,149.8205001267824L234.67997596153845,149.85300794917546L234.76564903846153,149.8558937202585L235.04408653846153,149.82821435872867L235.17259615384617,149.79335520353408L235.34394230769232,149.79480575732288L235.47245192307693,149.80301626748977L236.97173076923076,149.7992150677868L237.55002403846154,149.83485903999974L238.21399038461539,149.83980585135083L238.29966346153844,149.83640436230337L238.32108173076924,149.84026884375953L238.57810096153844,149.81081877850858L239.19923076923078,149.8736216706238L239.67043269230768,149.91942164791834L239.7132692307692,149.95115329321152L240.07737980769232,149.9821771055217L240.22730769230768,149.98530923543905L240.27014423076923,149.98999481927476L240.4414903846154,149.96155172903013L241.38389423076922,149.95807957839176L241.51240384615386,149.9605380725336L241.61949519230768,149.94257739075854L241.9621875,149.93259223335286L242.1121153846154,149.90565143247426L242.81891826923078,149.85825624895085L242.94742788461537,149.84430959422582L243.0116826923077,149.83679351567744L243.03310096153845,149.8309703907938L243.67564903846156,149.76743633994886L244.08259615384614,149.74595856934445L244.27536057692308,149.74585062128102L244.51096153846154,149.75601937390445L245.1535096153846,149.73072903464484L245.28201923076924,149.68696163362412L245.3034375,149.65022502104134L245.34627403846156,149.6290903553944L245.4319471153846,149.62747125420458L246.3529326923077,149.6926510697215L246.71704326923077,149.76313472483213L247.20966346153847,149.8769989055017L247.42384615384614,149.96995435307142L247.5309375,150.02519484549592L247.63802884615387,150.05993219429155L247.8950480769231,150.05784413047968L248.06639423076922,150.0532258351346L248.38766826923077,150.09225404558782L248.7731971153846,150.1290721374643L248.8374519230769,150.15695231723143L248.90170673076923,150.18236045579528L249.18014423076923,150.20737465942153L249.39432692307693,150.20493344500213L249.43716346153846,150.2087595524463L249.8226923076923,150.24454362464385L250.76509615384614,150.24322602017187L250.97927884615385,150.27056972899118L251.12920673076923,150.3061796320562L251.23629807692305,150.34016867536812L251.57899038461537,150.404260292998L251.72891826923077,150.45746683201259L251.75033653846154,150.4957576937739L251.96451923076924,150.5423537103691L252.00735576923077,150.57690772166004L252.13586538461539,150.6305350974211L252.6713221153846,150.70808980554395L252.82125000000002,150.75532948190005L252.9497596153846,150.8017059130313L253.20677884615384,150.8392008669878L253.6565625,150.90841597483785L254.1491826923077,150.95446572402852L254.3419471153846,150.9859990817293L254.36336538461538,151.00871182930376L254.83456730769228,151.07355456025545L254.92024038461537,151.10664186162438L255.07016826923078,151.1283009337347L255.37002403846157,151.10232459527023L256.33384615384614,151.0810892553435L256.5266105769231,151.0594069076363L256.8050480769231,151.04652937428853L257.51185096153847,151.04354245171965L257.53326923076924,151.04631845775856L257.64036057692306,151.04634353294142L257.79028846153847,151.06173523529867L257.81170673076923,151.06971480408012L258.19723557692305,151.09776270662965L258.4328365384615,151.10671849414837L259.05396634615386,151.10613647916992L259.1610576923077,151.1076704491322L259.5680048076923,151.1469269740072L259.6965144230769,151.1388123600177L259.7179326923077,151.13088936021876L259.8464423076923,151.135957630938L259.88927884615384,151.13190897850137L260.44615384615383,151.13853698103395L260.6817548076923,151.14486379998186L260.81026442307694,151.1729671423272L261.15295673076923,151.2383935370824L261.40997596153846,151.24228833727724L261.4956490384615,151.24193759925774L261.58132211538464,151.2594802061773L261.7098317307692,151.28722604394298L261.83834134615387,151.30675897765363L261.85975961538463,151.32151714425208L261.8811778846154,151.32554013407778L262.1381971153846,151.32570677326055L262.3737980769231,151.35784453645903" style="fill: none;" fill="none"></path></g></g></g></g><g opacity="0.2"><g><g><g><path stroke="rgb(238, 51, 119)" stroke-width="2px" d="M25.123629807692307,-0.9574145078659058L25.530576923076925,2.982860505580902L25.787596153846152,5.599608868360519L26.344471153846154,7.096485570073128L26.665745192307693,8.283521309494972L26.68716346153846,8.411255702376366L26.987019230769228,10.353185087442398L27.244038461538462,12.107231765985489L27.30829326923077,12.542670741677284L27.47963942307692,13.059753701090813L27.54389423076923,13.50766807794571L27.758076923076924,15.190554857254028L28.20786057692308,17.362171411514282L28.272115384615383,17.4271859228611L28.33637019230769,17.290009260177612L28.850408653846152,20.461701974272728L29.107427884615383,21.628468483686447L29.27877403846154,22.87374034523964L29.53579326923077,24.353051260113716L29.707139423076924,25.25534190237522L29.7928125,25.051238536834717L30.04983173076923,24.72242072224617L30.328269230769234,25.752683132886887L30.778052884615388,29.002815261483192L30.799471153846152,29.10002052783966L30.842307692307692,29.42703165113926L30.992235576923076,29.876093342900276L31.313509615384614,31.31854511797428L31.399182692307694,31.451725959777832L31.61336538461538,31.634254530072212L31.72045673076923,31.723283529281616L31.741875,31.71266756951809L31.870384615384616,31.90342515707016L32.363004807692306,33.466160371899605L32.40584134615384,33.37976887822151L32.427259615384614,33.58782850205898L32.51293269230769,33.83191645145416L32.855624999999996,35.46694569289684L32.96271634615385,36.073637902736664L33.00555288461538,35.95256321132183L33.262572115384614,36.45938627421856L33.348245192307694,36.805506125092506L33.47675480769231,37.01589994132519L34.07646634615384,38.25952336192131L34.16213942307692,38.803377002477646L34.20497596153846,39.21025179326534L34.911778846153844,40.72880879044533L35.083125,41.52583658695221L35.21163461538462,41.805201172828674L35.23305288461539,41.817333698272705L35.53290865384615,42.493629679083824L35.72567307692308,42.82306730747223L35.89701923076923,42.609429359436035L36.88225961538462,44.45820204913616L36.96793269230769,44.49547000229359L37.37487980769231,44.846337363123894L37.8032451923077,45.45305594801903L38.03884615384615,45.943763852119446L38.06026442307692,45.914935916662216L38.18877403846154,46.24057553708553L38.317283653846154,46.386574655771255L38.65997596153846,47.06678733229637L38.68139423076923,47.12631583213806L38.98125,48.10419738292694L39.2596875,48.47261734306812L39.79514423076923,48.54475311934948L39.987908653846155,48.90797719359398L40.095,49.07290041446686L40.41627403846154,49.22300085425377L40.737548076923076,49.025174751877785L41.35867788461538,49.46110166609287L41.61569711538461,49.885238930583L41.765625,50.14202646911144L42.83653846153847,51.81535229086876L42.90079326923077,51.509995087981224L42.943629807692304,51.61631293594837L43.17923076923077,51.5454563498497L43.32915865384616,51.736240312457085L43.41483173076923,51.84026353061199L43.45766826923077,52.05073647201061L43.650432692307696,51.940475553274155L44.05737980769231,52.70878091454506L44.35723557692308,52.948859855532646L44.378653846153846,52.91225127875805L44.50716346153847,53.32139432430267L44.699927884615384,53.380883261561394L44.956947115384615,54.02626767754555L45.042620192307695,54.09902326762676L45.08545673076923,54.113555923104286L45.19254807692308,54.3494676053524L45.23538461538462,54.35341067612171L45.535240384615385,54.50960375368595L45.685168269230765,54.62371543049812L45.98502403846154,55.09327054023743L46.09211538461539,55.02495914697647L46.113533653846154,55.023218393325806L46.370552884615385,55.38819640874863L46.58473557692307,55.81995606422424L46.627572115384616,55.67594826221466L46.79891826923077,55.832194089889526L46.9916826923077,55.90488374233246L47.01310096153846,55.88859714567661L47.527139423076925,56.27437189221382L47.67706730769231,56.36919021606445L48.12685096153846,56.49335078895092L48.23394230769231,56.64204016327858L48.255360576923074,56.6162321716547L48.29819711538462,56.71818494796753L48.362451923076925,56.88085310161114L48.448125,57.000767290592194L48.57663461538462,57.2464245557785L48.66230769230769,57.2311270236969L48.76939903846154,57.400085628032684L49.24060096153846,57.498464584350586L49.81889423076923,57.622229531407356L50.247259615384614,57.61116519570351L50.56853365384615,57.92984180152416L50.654206730769225,58.091652765870094L50.88980769230769,58.28947886824608L50.91122596153846,58.21438908576965L51.789375,58.250219598412514L52.23915865384616,58.56591582298279L52.26057692307692,58.64414423704147L52.64610576923077,59.25314426422119L52.667524038461536,59.29606966674328L53.01021634615385,59.39252324402332L53.05305288461539,59.332071617245674L53.43858173076923,59.65806730091572L53.60992788461539,59.890800788998604L53.78127403846154,59.901746436953545L53.84552884615385,59.826485216617584L54.59516826923077,60.518579855561256L54.659423076923076,60.51155090332031L54.95927884615384,60.3512828797102L55.02353365384615,60.375020429492L55.130625,60.49287736415863L55.38764423076923,60.58563843369484L55.6232451923077,60.58813087642193L55.730336538461536,60.59889189898968L55.77317307692307,60.55717974901199L56.28721153846154,60.459855794906616L56.458557692307686,60.40122404694557L57.20819711538462,60.97645081579685L57.40096153846154,61.26982055604458L57.52947115384615,61.49540640413761L57.893581730769235,61.563308984041214L57.93641826923077,61.56255729496479L58.00067307692308,61.52906097471714L58.08634615384616,61.6260552406311L59.457115384615385,62.79188543558121L59.49995192307692,62.794272378087044L59.75697115384616,62.80790828168392L59.82122596153847,62.81040072441101L59.99257211538461,62.91205018758774L60.99923076923077,63.44567030668259L61.08490384615384,63.41483786702156L61.27766826923077,63.47662143409252L61.42759615384615,63.60287882387638L61.87737980769231,63.76631185412407L62.112980769230774,63.86072136461735L62.17723557692308,63.88954930007458L62.3057451923077,63.99610452353954L62.32716346153846,63.93581114709377L62.6484375,63.994719833135605L62.90545673076923,63.96920196712017L62.99112980769231,63.98841619491577L63.098221153846154,64.01953876018524L63.1410576923077,64.03176359832287L63.41949519230769,64.30849067866802L63.44091346153846,64.30587954819202L63.54800480769231,64.38197158277035L63.78360576923077,64.69776012003422L63.82644230769231,64.7140071541071L65.77550480769231,65.60101345181465L65.96826923076924,65.63652746379375L66.18245192307693,65.66101670265198L66.41805288461538,65.91808117926121L66.71790865384615,66.070950999856L66.73932692307693,66.03605680167675L66.825,66.02337040007114L66.84641826923077,66.05875253677368L66.99634615384616,66.10670238733292L67.25336538461538,66.18168666958809L67.89591346153847,66.44171833992004L68.4313701923077,66.74454353749752L68.75264423076922,66.79292857646942L68.88115384615385,66.92461922764778L69.39519230769231,66.9561506062746L69.50228365384616,66.95044040679932L71.04439903846155,67.73348942399025L71.10865384615384,67.80224919319153L71.60127403846154,67.95376069843769L71.96538461538462,68.29539678990841L72.71502403846155,68.92494298517704L73.61459134615384,69.1325806081295L73.7216826923077,69.18724291026592L74.00012019230769,69.37865987420082L74.17146634615385,69.41660039126873L74.23572115384616,69.50773939490318L74.66408653846153,69.7396420687437L74.94252403846153,69.82537418603897L75.0496153846154,69.86832596361637L75.34947115384615,69.8268511891365L75.3923076923077,69.86826002597809L75.58507211538462,69.92583677172661L75.62790865384615,69.92839515209198L76.39896634615386,70.23426666855812L76.63456730769231,70.38230985403061L76.65598557692307,70.36426931619644L76.87016826923076,70.41322141885757L77.10576923076924,70.57119481265545L77.25569711538462,70.57308062911034L77.53413461538462,70.63864901661873L77.70548076923076,70.69343000650406L77.87682692307692,70.74436023831367L77.9625,70.68915724754333L78.04817307692308,70.79509265720844L78.45512019230769,71.14609189331532L78.62646634615385,71.12931735813618L78.71213942307692,71.17538139224052L78.86206730769231,71.2266281247139L78.92632211538462,71.23705945909023L78.96915865384615,71.22561268508434L79.03341346153846,71.20773039758205L79.11908653846153,71.23825952410698L79.31185096153847,71.32623352110386L79.44036057692308,71.445607021451L79.54745192307692,71.43079742789268L79.63312499999999,71.49149961769581L79.89014423076924,71.50603227317333L79.91156249999999,71.51399753987789L79.99723557692307,71.58807188272476L80.10432692307693,71.62210889160633L80.12574519230769,71.62022307515144L80.4041826923077,71.77016526460648L80.42560096153846,71.74574196338654L80.44701923076924,71.74223408102989L80.55411057692308,71.78064934909344L80.66120192307692,71.84543967247009L80.72545673076924,71.83825246989727L80.93963942307693,71.87718205153942L81.0895673076923,71.90748699009418L81.66786057692308,71.95546321570873L82.1390625,72.11024522781372L82.3532451923077,72.30118744075298L82.71735576923076,72.28273808956146L82.73877403846154,72.30317875742912L84.00245192307693,72.74776987731457L84.28088942307693,72.8263807296753L84.66641826923077,72.77792975306511L84.73067307692308,72.7955087274313L84.88060096153845,72.83069305121899L84.94485576923077,72.83364705741405L85.11620192307693,72.95755706727505L85.60882211538461,73.21170710027218L86.10144230769231,73.37221249938011L86.42271634615385,73.57588067650795L86.70115384615384,73.53530265390873L87.47221153846155,73.63695211708546L87.49362980769232,73.6556388437748L87.90057692307693,73.82770970463753L87.92199519230769,73.85524526238441L87.94341346153846,73.89119446277618L88.15759615384616,73.92639197409153L88.24326923076923,73.96902725100517L88.26468750000001,73.96815687417984L88.28610576923077,73.96020479500294L88.43603365384615,74.0099349617958L88.80014423076923,74.04343128204346L89.39985576923077,74.13464941084385L89.8068028846154,74.27484601736069L89.95673076923077,74.34075728058815L90.06382211538461,74.3577428162098L90.34225961538462,74.54282976686954L90.40651442307691,74.53791081905365L90.59927884615385,74.59157086908817L90.85629807692307,74.67511385679245L91.37033653846153,74.89815451204777L91.43459134615385,74.97974574565887L92.24848557692307,75.15558823943138L92.97670673076924,75.5709557980299L93.31939903846154,75.54790399968624L93.70492788461539,75.67941002547741L93.91911057692307,75.73888577520847L93.94052884615385,75.74293434619904L94.11187500000001,75.8340997248888L94.34747596153846,75.79374589025974L94.64733173076924,75.68253546953201L94.81867788461538,75.6561604142189L94.99002403846154,75.72365418076515L95.56831730769231,75.75273267924786L96.03951923076923,75.89190065860748L96.0609375,75.86884886026382L96.08235576923076,75.87342493236065L96.21086538461537,75.86341559886932L96.25370192307692,75.91471508145332L96.40362980769231,76.02729700505733L96.9605048076923,76.05481937527657L97.34603365384615,76.17979757487774L97.81723557692308,76.1714630573988L97.88149038461538,76.16651773452759L98.03141826923077,76.23205974698067L98.2884375,76.27153001725674L98.54545673076922,76.35946445167065L98.82389423076923,76.39511033892632L98.84531249999999,76.38283275067806L98.88814903846153,76.40523836016655L99.18800480769231,76.47447288036346L99.70204326923077,76.61734655499458L99.76629807692308,76.6199840605259L99.80913461538461,76.60095445811749L99.85197115384615,76.63063958287239L99.91622596153847,76.6583202034235L100.00189903846154,76.66090495884418L100.06615384615384,76.67550355195999L100.47310096153846,76.85106910765171L100.68728365384615,76.79917618632317L100.94430288461538,76.88865356147289L101.05139423076922,76.93539015948772L101.65110576923077,77.18324974179268L101.67252403846155,77.20245078206062L101.71536057692309,77.21123367547989L101.82245192307693,46.39506742358208L101.8438701923077,61.044775396585464L101.99379807692308,99.66987021267414L102.03663461538461,104.2907403409481L102.44358173076922,120.9933903068304L102.465,120.41346218436956L102.55067307692308,121.10684920102358L102.61492788461538,120.29588878154755L103.10754807692307,119.62468318641186L103.8571875,120.80157112330198L103.90002403846154,120.82134582102299L104.11420673076923,121.88024494796991L104.30697115384616,121.55231729149818L105.01377403846155,120.71934688836336L105.20653846153846,118.47569346427917L105.29221153846154,118.52119702845812L105.42072115384616,117.60785523802042L105.67774038461539,117.15781107544899L105.74199519230768,115.6067468225956L106.10610576923078,115.85716478526592L106.38454326923078,114.99789845198393L106.57730769230768,114.76263955235481L106.7058173076923,113.2273805513978L107.36978365384616,112.91040513664484L107.41262019230768,112.97344151884317L107.60538461538462,113.04602567106485L107.84098557692307,113.28411988914013L107.96949519230769,112.96507403254509L108.11942307692307,113.46155807375908L108.91189903846153,115.31789381057024L109.44735576923078,115.49506165087223L109.57586538461538,115.60461703687906L109.704375,115.97674928605556L109.7686298076923,116.00898619741201L110.23983173076924,116.46824844181538L110.45401442307691,116.73559918999672L110.98947115384615,117.61623591184616L111.22507211538462,117.79377300292253L111.54634615384614,118.53591430932283L111.84620192307692,118.21209456771612L111.97471153846153,118.19892682135105L112.38165865384615,117.89919409900904L112.44591346153847,118.13216496258974L112.51016826923076,118.50194323807955L112.61725961538463,118.72456848621368L113.13129807692307,119.63700033724308L113.92377403846153,120.36075163632631L114.03086538461538,120.69274764508009L114.13795673076923,120.32960269600153L114.26646634615385,120.1148372143507L115.16603365384616,120.19816920161247L115.23028846153846,120.24709492921829L115.57298076923077,120.22043634206057L116.15127403846154,120.63962828367949L116.19411057692308,120.59062343090773L116.42971153846153,120.43306544423103L116.60105769230769,120.78561421483755L116.83665865384616,120.79044084995985L117.09367788461539,120.91922365128994L117.58629807692309,121.10781189054251L117.7148076923077,121.22556991875172L118.35735576923076,121.66127923876047L118.57153846153845,122.07861833274364L118.65721153846154,122.04493079334497L119.19266826923077,122.67685733735561L119.27834134615384,122.83199541270733L119.40685096153845,123.13247323036194L120.09223557692307,123.17162040621042L120.15649038461538,123.23453810065985L120.2207451923077,123.29411935061216L121.01322115384616,122.91779346764088L121.1203125,122.99168977886438L121.20598557692307,123.02353106439114L121.22740384615385,123.03325686603785L121.39874999999999,122.83510107547045L121.63435096153846,123.20927739143372L121.80569711538462,123.54995738714933L121.89137019230769,123.69413003325462L121.93420673076923,123.73615868389606L122.06271634615385,123.58831331133842L122.23406250000001,123.59032440930605L122.25548076923077,123.63953366875648L122.44824519230768,123.65664448589087L122.74810096153846,123.64526364952326L122.89802884615385,123.75909838825464L123.36923076923077,123.36953222751617L123.51915865384616,123.4252693131566L123.64766826923078,123.3803591877222L123.73334134615385,123.46868265420198L123.75475961538461,123.50850898772478L124.33305288461538,123.87158799916506L124.39730769230769,123.97316493093967L124.4615625,123.91378808766603L124.54723557692307,124.01005044579506L124.88992788461539,124.26414772868156L124.93276442307692,124.31092388927937L124.97560096153846,124.29037772119045L124.99701923076923,124.2943076044321L125.0184375,124.35653295367956L125.18978365384616,124.46801371872425L126.00367788461539,124.64413974434137L126.2821153846154,124.65344354510307L126.60338942307692,124.81884151697159L127.01033653846153,125.14545701444149L127.09600961538462,125.24362497031689L127.24593750000001,125.28155229985714L127.33161057692307,125.22494483739138L127.43870192307692,125.12635488063097L128.10266826923078,125.27078468352556L128.33826923076924,125.2843414619565L129.02365384615385,125.44617880135775L129.5376923076923,125.33486288040876L129.83754807692307,125.39969276636839L129.94463942307692,125.43631453067064L130.22307692307692,125.19404646009207L130.24449519230768,125.24016324430704L130.41584134615385,125.2219182997942L130.45867788461538,125.30408978462219L130.56576923076923,125.15060015022755L131.3582451923077,125.29984340071678L131.44391826923078,125.27727954089642L131.52959134615386,125.3272932395339L131.7651923076923,125.01901499927044L131.78661057692307,124.98642202466726L131.82944711538462,124.9438526853919L131.8508653846154,124.88377690315247L132.53625,124.50123310089111L132.77185096153846,124.57183912396431L132.8146875,124.6561997383833L132.92177884615384,124.67652831226587L132.96461538461537,124.73345886915922L133.07170673076925,124.70972131937742L133.20021634615387,124.76498365402222L133.35014423076922,124.74311213940382L133.6285817307692,124.69028290361166L133.94985576923077,124.7425714507699L134.1426201923077,124.67626456171274L134.206875,124.66635413467884L134.84942307692307,124.81512922793627L135.34204326923077,124.36285637319088L135.36346153846154,124.35856383293867L135.42771634615383,124.37951881438494L135.4705528846154,124.39356353133917L135.55622596153847,124.39244918525219L135.6847355769231,124.44163206964731L136.2844471153846,124.5050311088562L136.45579326923078,124.31945621967316L136.94841346153845,124.08510725945234L137.1411778846154,124.18304443359375L137.16259615384615,124.23177894204855L137.46245192307694,124.14099600166082L137.61237980769232,124.17189437896013L138.06216346153846,124.18150149285793L138.2549278846154,124.20848976820707L138.3191826923077,124.13981571793556L138.36201923076922,124.15506709367037L139.32584134615385,124.36653569340706L139.43293269230767,124.38447073101997L139.45435096153847,124.36410918831825L139.6899519230769,124.29886389523745L139.73278846153846,124.35242503881454L140.20399038461537,124.42957866936922L140.67519230769233,124.39635928720236L141.46766826923078,124.40078370273113L142.51716346153847,124.30622912943363L142.81701923076923,124.2898304387927L144.01644230769233,124.40754231065512L144.16637019230768,124.54012971371412L144.38055288461538,124.63639207184315L144.63757211538461,124.51426897197962L144.7018269230769,124.50735870748758L144.74466346153847,124.55096986144781L144.76608173076923,124.55447774380445L145.25870192307693,124.56377495080233L145.4300480769231,124.65812511742115L146.35103365384614,124.9768940359354L147.0792548076923,125.00262949615717L147.35769230769233,125.04451308399439L147.37911057692307,124.9980204552412L147.4219471153846,124.96144484728575L148.83555288461537,124.84392419457436L148.94264423076925,124.81333572417498L149.00689903846154,124.81673810631037L149.17824519230768,124.9577259644866L149.54235576923077,124.83791068196297L149.7351201923077,124.77294892072678L149.88504807692306,124.84275709837675L150.0135576923077,124.86346811056137L150.1420673076923,124.93278834968805L150.913125,124.97443456202745L151.08447115384615,124.96161628514528L151.57709134615385,125.22998247295618L151.61992788461538,125.18995173275471L151.64134615384614,125.20479429513216L152.32673076923078,125.22114023566246L152.3695673076923,125.22762190550566L152.7979326923077,125.53400114178658L152.90502403846153,125.53825411945581L152.94786057692306,125.56642927229404L152.99069711538462,125.55092733353376L153.5475721153846,125.36750201135874L154.34004807692307,125.47322642058134L154.4685576923077,125.43250992894173L154.68274038461539,125.52301593124866L154.76841346153847,125.50295110791922L154.85408653846153,125.47848165035248L155.1539423076923,125.66883701831102L155.32528846153846,125.68118054419756L155.925,125.59865958988667L155.96783653846154,125.63952773809433L156.11776442307692,125.74677530676126L156.28911057692306,125.80909296870232L156.31052884615383,125.8362790569663L156.37478365384615,125.81017434597015L156.67463942307694,125.83051610738039L156.9744951923077,125.85704941302538L157.06016826923076,125.78910067677498L157.1030048076923,125.82381684333086L157.3814423076923,125.87853189557791L157.61704326923075,125.91854944825172L157.63846153846154,125.90830933302641L157.7455528846154,125.85617244243622L157.78838942307692,125.84472566843033L157.85264423076924,125.86912259459496L158.6451201923077,126.08674317598343L159.03064903846152,126.0099983587861L159.43759615384616,126.01111270487309L159.56610576923075,125.98971594125032L159.78028846153848,126.02941699326038L160.0801442307692,125.94331562519073L160.46567307692308,125.97650863230228L160.52992788461538,126.00462444126606L161.25814903846154,125.92997644096613L161.32240384615383,125.93800764530897L161.51516826923077,125.9387593343854L161.64367788461539,125.90735983103514L161.7507692307692,125.82601256668568L162.0292067307692,125.7609848678112L162.13629807692308,125.81726923584938L162.4789903846154,125.88221121579409L162.58608173076922,125.9088434278965L162.69317307692307,125.96705976873636L162.77884615384616,125.93482285737991L163.12153846153845,125.80096285790205L163.4213942307692,125.76966226100922L163.8497596153846,125.82504328340292L164.10677884615384,125.90712904930115L164.36379807692308,125.92573005706072L165.1134375,125.76988644897938L165.26336538461538,125.7552482932806L165.37045673076923,125.78139916062355L165.41329326923076,125.81569332629442L165.45612980769232,125.86041882634163L165.58463942307694,125.88425528258085L165.6703125,125.88533665984869L166.0130048076923,125.94327606260777L166.24860576923078,125.96415851265192L166.5698798076923,126.0440419614315L166.7626442307692,126.11719977110624L167.12675480769232,126.08667723834515L167.5337019230769,126.06350015848875L167.74788461538463,126.05241604149342L167.87639423076922,126.1034319922328L167.98348557692307,126.10577937215567L168.02632211538463,126.12875863909721L168.15483173076922,126.1672991886735L168.34759615384615,126.25458743423223L168.69028846153844,126.34833097457886L169.52560096153846,126.38917274773121L169.5684375,126.36494066566229L169.6326923076923,126.34161852300167L169.86829326923078,126.3189821317792L170.01822115384613,126.36509891599417L170.8321153846154,126.42719238996506L171.1748076923077,126.42464719712734L171.28189903846155,126.45710170269012L171.32473557692308,126.48970786482096L171.3889903846154,126.51988752186298L171.75310096153845,126.60246782004833L171.96728365384615,126.65951047092676L171.98870192307692,126.65858075022697L172.30997596153844,126.66357882320881L172.52415865384614,126.66451513767242L173.23096153846154,126.88609197735786L173.72358173076924,126.8231874704361L173.87350961538462,126.8097559735179L173.9377644230769,126.79393753409386L174.06627403846156,126.85618925839663L174.88016826923078,126.95388246327639L175.15860576923077,126.87225826084614L175.18002403846154,126.87012188136578L175.2228605769231,126.89147908240557L175.35137019230768,126.88472706824541L175.415625,126.86819650232792L175.80115384615385,126.87567383050919L176.1866826923077,126.91915310919285L176.70072115384613,127.01102402061224L176.78639423076922,127.02584020793438L177.04341346153845,126.9559858739376L177.2361778846154,126.91176149994135L177.8358894230769,126.99041850864887L177.96439903846155,126.99775077402592L178.52127403846154,126.88824813812971L178.6069471153846,126.90703377127647L178.64978365384616,126.93284176290035L178.92822115384615,126.94368850439787L179.0353125,126.9287734106183L179.2280769230769,126.977435387671L179.44225961538461,126.8904372677207L179.6136057692308,126.92557543516159L180.29899038461537,126.9451193511486L180.44891826923077,126.9927790760994L180.68451923076924,127.10722044110298L180.7059375,127.11059644818306L181.30564903846155,127.10296746343374L181.3913221153846,127.14621596038342L181.43415865384614,127.15069971978664L181.69117788461537,127.19484496861696L182.20521634615383,134.8214889317751L182.46223557692306,147.11345817893744L182.63358173076924,152.1866736933589L182.76209134615382,149.2417075484991L182.99769230769232,144.44157276302576L183.16903846153846,142.67532102763653L183.21187500000002,141.58092107623816L183.3403846153846,142.90670938789845L183.46889423076922,144.50958084315062L184.06860576923077,149.42847590893507L184.21853365384615,148.91904830932617L184.26137019230768,149.04855642467737L184.30420673076924,149.55113969743252L184.36846153846156,149.13072131574154L185.03242788461537,145.4446754604578L185.05384615384614,145.6054973602295L185.16093750000002,145.74990078806877L185.46079326923078,144.58052314817905L185.5036298076923,144.0824829787016L185.52504807692307,144.29538242518902L186.81014423076925,142.82008051872253L186.93865384615384,142.47026156634092L187.00290865384616,142.31406848877668L187.55978365384615,142.29668732732534L187.58120192307692,142.02795188874006L187.64545673076924,142.168451808393L187.666875,142.0664594694972L188.37367788461538,141.77318204194307L188.39509615384617,141.8305280059576L188.95197115384616,142.75107018649578L189.31608173076924,143.17356560379267L189.4017548076923,143.30495953559875L189.57310096153847,143.6454351246357L189.6801923076923,144.0132286772132L189.70161057692306,144.07204505056143L189.8301201923077,144.24849417060614L190.25848557692308,145.24082265794277L190.53692307692307,145.6472358852625L190.6654326923077,145.6186717003584L191.008125,146.07179515063763L191.20088942307692,146.8318846821785L191.24372596153847,146.57712802290916L191.26514423076924,146.7239909246564L192.48598557692307,146.65279146283865L193.34271634615385,147.98099968582392L193.40697115384617,148.13339475542307L193.42838942307694,148.11040230095387L193.47122596153847,148.16239412873983L193.77108173076925,147.67214119434357L193.9424278846154,147.76092622429132L194.43504807692307,147.9784742742777L194.45646634615383,148.0465878546238L194.8419951923077,147.41608556360006L195.3988701923077,146.97795633226633L195.57021634615384,147.15986508876085L195.82723557692307,147.398770339787L195.87007211538463,147.3588714748621L196.2770192307692,147.26876769214869L196.29843749999998,147.32855334877968L196.74822115384617,147.07166031002998L196.89814903846153,147.37881761044264L197.0694951923077,147.2119690105319L197.09091346153843,147.26684890687466L197.4121875,147.08989206701517L197.69062499999998,147.57284570485353L197.71204326923078,147.5876223295927L198.2475,147.52932026982307L198.71870192307694,147.87688415497541L198.84721153846152,148.17426290363073L198.91146634615384,148.2627709954977L198.9328846153846,148.30027632415295L199.0185576923077,148.41200105845928L199.12564903846155,148.4061523899436L199.2327403846154,148.4204938262701L200.26081730769232,149.14084933698177L200.32507211538461,149.15877118706703L200.56067307692308,149.30972881615162L200.7534375,149.7231973707676L200.86052884615384,149.6802719682455L201.28889423076922,149.4769598543644L201.58875,149.32428125292063L201.69584134615386,149.2915366217494L202.5739903846154,149.78751953691244L202.65966346153846,149.67427164316177L203.30221153846153,149.60967913269997L203.58064903846153,149.52113147825003L203.9447596153846,149.63790703564882L204.13752403846155,149.71857514232397L204.33028846153846,149.64901752769947L204.5230528846154,149.81855638325214L204.65156249999998,149.86651942133904L204.67298076923078,149.82373908162117L204.84432692307692,149.94836121797562L205.65822115384614,150.27586687356234L205.7653125,150.15243161469698L206.02233173076922,150.23830220103264L206.06516826923078,150.23356787860394L206.08658653846155,150.244355276227L206.21509615384613,150.43841633945704L206.90048076923077,150.55161148309708L206.98615384615385,150.58389455080032L207.6501201923077,150.98364148288965L207.7786298076923,150.88308658450842L208.0570673076923,151.02539978921413L208.16415865384613,151.06502171605825L208.29266826923077,151.10840868204832L208.72103365384615,151.00802522152662L208.89237980769232,151.08837023377419L208.93521634615385,151.15922681987286L209.40641826923078,151.07131876051426L209.4492548076923,151.00189302116632L209.66343750000001,151.03362880647182L209.89903846153845,150.99641360342503L209.98471153846154,151.0384488478303L210.3488221153846,150.99868185818195L210.41307692307691,150.9756564348936L210.6272596153846,150.98737355321646L211.31264423076922,150.92586692422628L211.4197355769231,150.83811711519957L211.56966346153845,150.916892811656L211.80526442307692,150.8575950935483L211.93377403846154,150.7181567698717L212.08370192307692,150.69136630743742L212.42639423076923,150.41770532727242L212.51206730769232,150.3566075116396L212.91901442307693,150.24723015725613L213.47588942307692,150.6213603168726L213.5615625,150.58623533695936L213.75432692307692,150.35517007112503L213.88283653846156,150.36419693380594L213.90425480769233,150.2805484458804L213.98992788461538,150.31589101999998L214.3326201923077,150.34990165382624L214.91091346153846,150.49002572894096L215.25360576923077,150.5828857049346L215.44637019230768,150.36568712443113L215.59629807692306,150.1547921821475L215.7033894230769,150.1726546883583L216.71004807692307,149.8671194538474L216.79572115384616,149.86580070108175L217.4596875,149.66887794435024L217.63103365384615,149.620928093791L217.6524519230769,149.61525086313486L217.69528846153847,149.65346172451973L217.71670673076923,149.62560966610909L218.20932692307693,149.69114508479834L218.27358173076922,149.67139016836882L218.33783653846154,149.66629318892956L218.48776442307692,149.6605434268713L218.55201923076925,149.60354033857584L218.65911057692307,149.53836757689714L218.74478365384616,149.52209416776896L218.93754807692306,149.56010721623898L218.95896634615383,149.5467548444867L219.04463942307692,149.52353160828352L219.21598557692306,149.60835378617048L219.60151442307694,149.6999741345644L219.6229326923077,149.69334740191698L220.43682692307692,149.79307148605585L220.69384615384615,149.8041358217597L220.7366826923077,149.69312321394682L220.88661057692306,149.7856666892767L221.1007932692308,149.78602275252342L221.12221153846153,149.7031655162573L221.20788461538461,149.7107483446598L221.25072115384614,149.7469151392579L221.33639423076923,149.77959383279085L221.40064903846152,149.80490069836378L221.59341346153846,149.8693547397852L221.74334134615384,149.8279459029436L221.89326923076925,149.75132636725903L222.02177884615384,149.76343911141157L222.0431971153846,149.79156151413918L222.17170673076924,149.75759703665972L222.27879807692307,149.61123526096344L222.4929807692308,149.68968126922846L222.70716346153847,149.70784049481153L222.83567307692306,149.7522033378482L223.1569471153846,149.68639757484198L223.58531250000001,149.7020973265171L223.6495673076923,149.73564639687538L223.69240384615384,149.73089888691902L223.97084134615383,149.839603677392L224.1421875,149.71093956381083L224.27069711538462,149.77858498692513L224.31353365384615,149.80515126138926L224.65622596153847,149.85455833375454L224.67764423076923,149.87552650272846L224.69906250000003,149.87168233841658L225.34161057692307,149.83721673488617L225.72713942307692,149.7766464203596L225.91990384615383,149.80682607740164L226.11266826923077,149.89214278757572L226.32685096153847,149.8802937939763L226.4339423076923,149.88271370530128L226.90514423076925,149.64801527559757L227.0764903846154,149.673341922462L227.20499999999998,149.70577005296946L227.48343749999998,149.7319670766592L228.19024038461538,149.6130419522524L228.51151442307693,149.68307431787252L228.57576923076925,149.65343534946442L228.5971875,149.6798038110137L228.6614423076923,149.7390092164278L228.85420673076925,149.53034956008196L228.9398798076923,149.52620208263397L229.0255528846154,149.57569487392902L229.28257211538462,149.47469159960747L229.3039903846154,149.48833409696817L229.45391826923077,149.54064901918173L229.9679567307692,149.13695242255926L230.01079326923076,149.15082570165396L230.3320673076923,149.16123066097498L230.35348557692308,149.1748533770442L230.4819951923077,149.19571604579687L230.54625,149.22627814114094L230.73901442307692,149.157274402678L231.0817067307692,149.23012230545282L231.14596153846153,149.23616878688335L231.29588942307694,149.2427559569478L231.61716346153844,149.38462737947702L231.85276442307693,149.50675047934055L232.13120192307693,149.48928359895945L232.40963942307692,149.47415091097355L232.77374999999998,149.56046987324953L232.9236778846154,149.58992421627045L233.330625,149.80258628726006L233.35204326923076,149.79054607450962L233.50197115384617,149.8514724522829L233.56622596153844,149.821556545794L233.63048076923076,149.84430503100157L233.8232451923077,149.76066313683987L233.84466346153846,149.74935483187437L234.25161057692307,149.7756177932024L234.42295673076922,149.80672057718039L234.5086298076923,149.80579745024443L234.53004807692307,149.82105541974306L234.55146634615386,149.84340827912092L234.67997596153845,149.901769682765L234.76564903846153,149.86022237688303L235.04408653846153,149.7866953164339L235.17259615384617,149.74106647074223L235.34394230769232,149.79698158800602L235.47245192307693,149.81533203274012L236.97173076923076,149.79351326823235L237.55002403846154,149.88832499831915L238.21399038461539,149.8472260683775L238.29966346153844,149.8313021287322L238.32108173076924,149.84606556594372L238.57810096153844,149.76664368063211L239.19923076923078,149.9678260087967L239.67043269230768,149.98812161386013L239.7132692307692,149.9987507611513L240.07737980769232,150.028712823987L240.22730769230768,149.99000743031502L240.27014423076923,149.9970231950283L240.4414903846154,149.91888709366322L241.38389423076922,149.95287135243416L241.51240384615386,149.96422581374645L241.61949519230768,149.91563636809587L241.9621875,149.91761449724436L242.1121153846154,149.86524023115635L242.81891826923078,149.78716347366571L242.94742788461537,149.82338961213827L243.0116826923077,149.8255193978548L243.03310096153845,149.82223570346832L243.67564903846156,149.6721352636814L244.08259615384614,149.71374191343784L244.27536057692308,149.74568869918585L244.51096153846154,149.77127250283957L245.1535096153846,149.6927935257554L245.28201923076924,149.62131053209305L245.3034375,149.59512010216713L245.34627403846156,149.59738835692406L245.4319471153846,149.62504260241985L246.3529326923077,149.79042079299688L246.71704326923077,149.86886020749807L247.20966346153847,150.04779517650604L247.42384615384614,150.10938752442598L247.5309375,150.10805558413267L247.63802884615387,150.11203821748495L247.8950480769231,150.0547120347619L248.06639423076922,150.04629839211702L248.38766826923077,150.15079636126757L248.7731971153846,150.18429927527905L248.8374519230769,150.19877258688211L248.90170673076923,150.22047266364098L249.18014423076923,150.24489596486092L249.39432692307693,150.20127162337303L249.43716346153846,150.21449871361256L249.8226923076923,150.2982197329402L250.76509615384614,150.24124961346388L250.97927884615385,150.31158529222012L251.12920673076923,150.3595944866538L251.23629807692305,150.39115224033594L251.57899038461537,150.50039771944284L251.72891826923077,150.5372766405344L251.75033653846154,150.55319398641586L251.96451923076924,150.61224773526192L252.00735576923077,150.62873873859644L252.13586538461539,150.71097616106272L252.6713221153846,150.82442186772823L252.82125000000002,150.8261889964342L252.9497596153846,150.87127055972815L253.20677884615384,150.8954432979226L253.6565625,151.0122386366129L254.1491826923077,151.02354034781456L254.3419471153846,151.0332991182804L254.36336538461538,151.04278095066547L254.83456730769228,151.17081865668297L254.92024038461537,151.1562728136778L255.07016826923078,151.16078954190016L255.37002403846157,151.06336008757353L256.33384615384614,151.04923624545336L256.5266105769231,151.0268833860755L256.8050480769231,151.0272130742669L257.51185096153847,151.03906206786633L257.53326923076924,151.0504824668169L257.64036057692306,151.0463811457157L257.79028846153847,151.08482278883457L257.81170673076923,151.0816841572523L258.19723557692305,151.1398345604539L258.4328365384615,151.12015217542648L259.05396634615386,151.10526345670223L259.1610576923077,151.10997140407562L259.5680048076923,151.20581176131964L259.6965144230769,151.1266404390335L259.7179326923077,151.11900486052036L259.8464423076923,151.14356003701687L259.88927884615384,151.12583599984646L260.44615384615383,151.14847898483276L260.6817548076923,151.15435402840376L260.81026442307694,151.21512215584517L261.15295673076923,151.33653312921524L261.40997596153846,151.24813053756952L261.4956490384615,151.2414114922285L261.58132211538464,151.28579411655664L261.7098317307692,151.32884480059147L261.83834134615387,151.3360583782196L261.85975961538463,151.34365439414978L261.8811778846154,151.33157461881638L262.1381971153846,151.32595673203468L262.3737980769231,151.40605118125677" style="fill: none;" fill="none"></path></g></g></g></g></g></g><g transform="translate(51, 177)" clip-path="url(#clip_1)"><clipPath id="clip_1"><rect width="278" height="23"></rect></clipPath><g><g><line x1="0" y1="0" x2="0" y2="5" style="visibility: inherit;" fill="rgb(0, 0, 0)" stroke="rgb(204, 204, 204)" stroke-width="1px"></line><line x1="21.418269230769234" y1="0" x2="21.418269230769234" y2="5" style="visibility: inherit;" fill="rgb(0, 0, 0)" stroke="rgb(204, 204, 204)" stroke-width="1px"></line><line x1="42.83653846153847" y1="0" x2="42.83653846153847" y2="5" style="visibility: inherit;" fill="rgb(0, 0, 0)" stroke="rgb(204, 204, 204)" stroke-width="1px"></line><line x1="64.2548076923077" y1="0" x2="64.2548076923077" y2="5" style="visibility: inherit;" fill="rgb(0, 0, 0)" stroke="rgb(204, 204, 204)" stroke-width="1px"></line><line x1="85.67307692307693" y1="0" x2="85.67307692307693" y2="5" style="visibility: inherit;" fill="rgb(0, 0, 0)" stroke="rgb(204, 204, 204)" stroke-width="1px"></line><line x1="107.09134615384616" y1="0" x2="107.09134615384616" y2="5" style="visibility: inherit;" fill="rgb(0, 0, 0)" stroke="rgb(204, 204, 204)" stroke-width="1px"></line><line x1="128.5096153846154" y1="0" x2="128.5096153846154" y2="5" style="visibility: inherit;" fill="rgb(0, 0, 0)" stroke="rgb(204, 204, 204)" stroke-width="1px"></line><line x1="149.9278846153846" y1="0" x2="149.9278846153846" y2="5" style="visibility: inherit;" fill="rgb(0, 0, 0)" stroke="rgb(204, 204, 204)" stroke-width="1px"></line><line x1="171.34615384615387" y1="0" x2="171.34615384615387" y2="5" style="visibility: inherit;" fill="rgb(0, 0, 0)" stroke="rgb(204, 204, 204)" stroke-width="1px"></line><line x1="192.76442307692307" y1="0" x2="192.76442307692307" y2="5" style="visibility: inherit;" fill="rgb(0, 0, 0)" stroke="rgb(204, 204, 204)" stroke-width="1px"></line><line x1="214.18269230769232" y1="0" x2="214.18269230769232" y2="5" style="visibility: inherit;" fill="rgb(0, 0, 0)" stroke="rgb(204, 204, 204)" stroke-width="1px"></line><line x1="235.60096153846155" y1="0" x2="235.60096153846155" y2="5" style="visibility: inherit;" fill="rgb(0, 0, 0)" stroke="rgb(204, 204, 204)" stroke-width="1px"></line><line x1="257.0192307692308" y1="0" x2="257.0192307692308" y2="5" style="visibility: inherit;" fill="rgb(0, 0, 0)" stroke="rgb(204, 204, 204)" stroke-width="1px"></line><line x1="278.4375" y1="0" x2="278.4375" y2="5" style="visibility: inherit;" fill="rgb(0, 0, 0)" stroke="rgb(204, 204, 204)" stroke-width="1px"></line></g><g transform="translate(0, 8)"><text x="0" y="0" dx="0em" dy="0.95em" style="text-anchor: middle; visibility: hidden; font-family: Roboto, sans-serif; font-size: 12px; font-weight: 200;" fill="rgb(33, 33, 33)" stroke="none" stroke-width="1px">-1k</text><text x="21.418269230769234" y="0" dx="0em" dy="0.95em" style="text-anchor: middle; visibility: inherit; font-family: Roboto, sans-serif; font-size: 12px; font-weight: 200;" fill="rgb(33, 33, 33)" stroke="none" stroke-width="1px">0</text><text x="42.83653846153847" y="0" dx="0em" dy="0.95em" style="text-anchor: middle; visibility: hidden; font-family: Roboto, sans-serif; font-size: 12px; font-weight: 200;" fill="rgb(33, 33, 33)" stroke="none" stroke-width="1px">1k</text><text x="64.2548076923077" y="0" dx="0em" dy="0.95em" style="text-anchor: middle; visibility: inherit; font-family: Roboto, sans-serif; font-size: 12px; font-weight: 200;" fill="rgb(33, 33, 33)" stroke="none" stroke-width="1px">2k</text><text x="85.67307692307693" y="0" dx="0em" dy="0.95em" style="text-anchor: middle; visibility: hidden; font-family: Roboto, sans-serif; font-size: 12px; font-weight: 200;" fill="rgb(33, 33, 33)" stroke="none" stroke-width="1px">3k</text><text x="107.09134615384616" y="0" dx="0em" dy="0.95em" style="text-anchor: middle; visibility: inherit; font-family: Roboto, sans-serif; font-size: 12px; font-weight: 200;" fill="rgb(33, 33, 33)" stroke="none" stroke-width="1px">4k</text><text x="128.5096153846154" y="0" dx="0em" dy="0.95em" style="text-anchor: middle; visibility: hidden; font-family: Roboto, sans-serif; font-size: 12px; font-weight: 200;" fill="rgb(33, 33, 33)" stroke="none" stroke-width="1px">5k</text><text x="149.9278846153846" y="0" dx="0em" dy="0.95em" style="text-anchor: middle; visibility: inherit; font-family: Roboto, sans-serif; font-size: 12px; font-weight: 200;" fill="rgb(33, 33, 33)" stroke="none" stroke-width="1px">6k</text><text x="171.34615384615387" y="0" dx="0em" dy="0.95em" style="text-anchor: middle; visibility: hidden; font-family: Roboto, sans-serif; font-size: 12px; font-weight: 200;" fill="rgb(33, 33, 33)" stroke="none" stroke-width="1px">7k</text><text x="192.76442307692307" y="0" dx="0em" dy="0.95em" style="text-anchor: middle; visibility: inherit; font-family: Roboto, sans-serif; font-size: 12px; font-weight: 200;" fill="rgb(33, 33, 33)" stroke="none" stroke-width="1px">8k</text><text x="214.18269230769232" y="0" dx="0em" dy="0.95em" style="text-anchor: middle; visibility: hidden; font-family: Roboto, sans-serif; font-size: 12px; font-weight: 200;" fill="rgb(33, 33, 33)" stroke="none" stroke-width="1px">9k</text><text x="235.60096153846155" y="0" dx="0em" dy="0.95em" style="text-anchor: middle; visibility: inherit; font-family: Roboto, sans-serif; font-size: 12px; font-weight: 200;" fill="rgb(33, 33, 33)" stroke="none" stroke-width="1px">10k</text><text x="257.0192307692308" y="0" dx="0em" dy="0.95em" style="text-anchor: middle; visibility: hidden; font-family: Roboto, sans-serif; font-size: 12px; font-weight: 200;" fill="rgb(33, 33, 33)" stroke="none" stroke-width="1px">11k</text><text x="278.4375" y="0" dx="0em" dy="0.95em" style="text-anchor: middle; visibility: hidden; font-family: Roboto, sans-serif; font-size: 12px; font-weight: 200;" fill="rgb(33, 33, 33)" stroke="none" stroke-width="1px">12k</text></g><line x1="0" y1="0" x2="278.4375" y2="0" fill="rgb(0, 0, 0)" stroke="rgb(204, 204, 204)" stroke-width="1px"></line></g></g></g></g></svg>