<svg viewBox="0 0 330 200" xmlns="http://www.w3.org/2000/svg"><g><g><g><g><g><line x1="51.5625" y1="177" x2="46.5625" y2="177" style="visibility: inherit;" fill="rgb(0, 0, 0)" stroke="rgb(204, 204, 204)" stroke-width="1px"></line><line x1="51.5625" y1="160.90909090909088" x2="46.5625" y2="160.90909090909088" style="visibility: inherit;" fill="rgb(0, 0, 0)" stroke="rgb(204, 204, 204)" stroke-width="1px"></line><line x1="51.5625" y1="144.81818181818178" x2="46.5625" y2="144.81818181818178" style="visibility: inherit;" fill="rgb(0, 0, 0)" stroke="rgb(204, 204, 204)" stroke-width="1px"></line><line x1="51.5625" y1="128.7272727272727" x2="46.5625" y2="128.7272727272727" style="visibility: inherit;" fill="rgb(0, 0, 0)" stroke="rgb(204, 204, 204)" stroke-width="1px"></line><line x1="51.5625" y1="112.63636363636357" x2="46.5625" y2="112.63636363636357" style="visibility: inherit;" fill="rgb(0, 0, 0)" stroke="rgb(204, 204, 204)" stroke-width="1px"></line><line x1="51.5625" y1="96.54545454545446" x2="46.5625" y2="96.54545454545446" style="visibility: inherit;" fill="rgb(0, 0, 0)" stroke="rgb(204, 204, 204)" stroke-width="1px"></line><line x1="51.5625" y1="80.45454545454537" x2="46.5625" y2="80.45454545454537" style="visibility: inherit;" fill="rgb(0, 0, 0)" stroke="rgb(204, 204, 204)" stroke-width="1px"></line><line x1="51.5625" y1="64.36363636363625" x2="46.5625" y2="64.36363636363625" style="visibility: inherit;" fill="rgb(0, 0, 0)" stroke="rgb(204, 204, 204)" stroke-width="1px"></line><line x1="51.5625" y1="48.27272727272715" x2="46.5625" y2="48.27272727272715" style="visibility: inherit;" fill="rgb(0, 0, 0)" stroke="rgb(204, 204, 204)" stroke-width="1px"></line><line x1="51.5625" y1="32.181818181818215" x2="46.5625" y2="32.181818181818215" style="visibility: inherit;" fill="rgb(0, 0, 0)" stroke="rgb(204, 204, 204)" stroke-width="1px"></line><line x1="51.5625" y1="16.090909090909115" x2="46.5625" y2="16.090909090909115" style="visibility: inherit;" fill="rgb(0, 0, 0)" stroke="rgb(204, 204, 204)" stroke-width="1px"></line><line x1="51.5625" y1="0" x2="46.5625" y2="0" style="visibility: inherit;" fill="rgb(0, 0, 0)" stroke="rgb(204, 204, 204)" stroke-width="1px"></line></g><g transform="translate(41.5625, 0)"><text x="0" y="177" dx="0em" dy="0.3em" style="text-anchor: end; visibility: hidden; font-family: Roboto, sans-serif; font-size: 12px; font-weight: 200;" fill="rgb(33, 33, 33)" stroke="none" stroke-width="1px">0.85</text><text x="0" y="160.90909090909088" dx="0em" dy="0.3em" style="text-anchor: end; visibility: inherit; font-family: Roboto, sans-serif; font-size: 12px; font-weight: 200;" fill="rgb(33, 33, 33)" stroke="none" stroke-width="1px">0.86</text><text x="0" y="144.81818181818178" dx="0em" dy="0.3em" style="text-anchor: end; visibility: hidden; font-family: Roboto, sans-serif; font-size: 12px; font-weight: 200;" fill="rgb(33, 33, 33)" stroke="none" stroke-width="1px">0.87</text><text x="0" y="128.7272727272727" dx="0em" dy="0.3em" style="text-anchor: end; visibility: inherit; font-family: Roboto, sans-serif; font-size: 12px; font-weight: 200;" fill="rgb(33, 33, 33)" stroke="none" stroke-width="1px">0.88</text><text x="0" y="112.63636363636357" dx="0em" dy="0.3em" style="text-anchor: end; visibility: hidden; font-family: Roboto, sans-serif; font-size: 12px; font-weight: 200;" fill="rgb(33, 33, 33)" stroke="none" stroke-width="1px">0.89</text><text x="0" y="96.54545454545446" dx="0em" dy="0.3em" style="text-anchor: end; visibility: inherit; font-family: Roboto, sans-serif; font-size: 12px; font-weight: 200;" fill="rgb(33, 33, 33)" stroke="none" stroke-width="1px">0.9</text><text x="0" y="80.45454545454537" dx="0em" dy="0.3em" style="text-anchor: end; visibility: hidden; font-family: Roboto, sans-serif; font-size: 12px; font-weight: 200;" fill="rgb(33, 33, 33)" stroke="none" stroke-width="1px">0.91</text><text x="0" y="64.36363636363625" dx="0em" dy="0.3em" style="text-anchor: end; visibility: inherit; font-family: Roboto, sans-serif; font-size: 12px; font-weight: 200;" fill="rgb(33, 33, 33)" stroke="none" stroke-width="1px">0.92</text><text x="0" y="48.27272727272715" dx="0em" dy="0.3em" style="text-anchor: end; visibility: hidden; font-family: Roboto, sans-serif; font-size: 12px; font-weight: 200;" fill="rgb(33, 33, 33)" stroke="none" stroke-width="1px">0.93</text><text x="0" y="32.181818181818215" dx="0em" dy="0.3em" style="text-anchor: end; visibility: inherit; font-family: Roboto, sans-serif; font-size: 12px; font-weight: 200;" fill="rgb(33, 33, 33)" stroke="none" stroke-width="1px">0.94</text><text x="0" y="16.090909090909115" dx="0em" dy="0.3em" style="text-anchor: end; visibility: hidden; font-family: Roboto, sans-serif; font-size: 12px; font-weight: 200;" fill="rgb(33, 33, 33)" stroke="none" stroke-width="1px">0.95</text><text x="0" y="0" dx="0em" dy="0.3em" style="text-anchor: end; visibility: hidden; font-family: Roboto, sans-serif; font-size: 12px; font-weight: 200;" fill="rgb(33, 33, 33)" stroke="none" stroke-width="1px">0.96</text></g><line x1="51.5625" y1="0" x2="51.5625" y2="177" fill="rgb(0, 0, 0)" stroke="rgb(204, 204, 204)" stroke-width="1px"></line></g></g><g transform="translate(51, 0)" clip-path="url(#clip_0)"><clipPath id="clip_0"><rect width="278" height="177"></rect></clipPath><g><g><g><line x1="0" y1="0" x2="0" y2="177" fill="rgb(0, 0, 0)" stroke="rgb(66, 66, 66)" stroke-width="1px" opacity="0.25"></line><line x1="21.418269230769234" y1="0" x2="21.418269230769234" y2="177" fill="rgb(0, 0, 0)" stroke="rgb(66, 66, 66)" stroke-width="1px" opacity="0.25"></line><line x1="42.83653846153847" y1="0" x2="42.83653846153847" y2="177" fill="rgb(0, 0, 0)" stroke="rgb(66, 66, 66)" stroke-width="1px" opacity="0.25"></line><line x1="64.2548076923077" y1="0" x2="64.2548076923077" y2="177" fill="rgb(0, 0, 0)" stroke="rgb(66, 66, 66)" stroke-width="1px" opacity="0.25"></line><line x1="85.67307692307693" y1="0" x2="85.67307692307693" y2="177" fill="rgb(0, 0, 0)" stroke="rgb(66, 66, 66)" stroke-width="1px" opacity="0.25"></line><line x1="107.09134615384616" y1="0" x2="107.09134615384616" y2="177" fill="rgb(0, 0, 0)" stroke="rgb(66, 66, 66)" stroke-width="1px" opacity="0.25"></line><line x1="128.5096153846154" y1="0" x2="128.5096153846154" y2="177" fill="rgb(0, 0, 0)" stroke="rgb(66, 66, 66)" stroke-width="1px" opacity="0.25"></line><line x1="149.9278846153846" y1="0" x2="149.9278846153846" y2="177" fill="rgb(0, 0, 0)" stroke="rgb(66, 66, 66)" stroke-width="1px" opacity="0.25"></line><line x1="171.34615384615387" y1="0" x2="171.34615384615387" y2="177" fill="rgb(0, 0, 0)" stroke="rgb(66, 66, 66)" stroke-width="1px" opacity="0.25"></line><line x1="192.76442307692307" y1="0" x2="192.76442307692307" y2="177" fill="rgb(0, 0, 0)" stroke="rgb(66, 66, 66)" stroke-width="1px" opacity="0.25"></line><line x1="214.18269230769232" y1="0" x2="214.18269230769232" y2="177" fill="rgb(0, 0, 0)" stroke="rgb(66, 66, 66)" stroke-width="1px" opacity="0.25"></line><line x1="235.60096153846155" y1="0" x2="235.60096153846155" y2="177" fill="rgb(0, 0, 0)" stroke="rgb(66, 66, 66)" stroke-width="1px" opacity="0.25"></line><line x1="257.0192307692308" y1="0" x2="257.0192307692308" y2="177" fill="rgb(0, 0, 0)" stroke="rgb(66, 66, 66)" stroke-width="1px" opacity="0.25"></line><line x1="278.4375" y1="0" x2="278.4375" y2="177" fill="rgb(0, 0, 0)" stroke="rgb(66, 66, 66)" stroke-width="1px" opacity="0.25"></line></g><g><line x1="0" y1="177" x2="278.4375" y2="177" fill="rgb(0, 0, 0)" stroke="rgb(66, 66, 66)" stroke-width="1px" opacity="0.25"></line><line x1="0" y1="160.90909090909088" x2="278.4375" y2="160.90909090909088" fill="rgb(0, 0, 0)" stroke="rgb(66, 66, 66)" stroke-width="1px" opacity="0.25"></line><line x1="0" y1="144.81818181818178" x2="278.4375" y2="144.81818181818178" fill="rgb(0, 0, 0)" stroke="rgb(66, 66, 66)" stroke-width="1px" opacity="0.25"></line><line x1="0" y1="128.7272727272727" x2="278.4375" y2="128.7272727272727" fill="rgb(0, 0, 0)" stroke="rgb(66, 66, 66)" stroke-width="1px" opacity="0.25"></line><line x1="0" y1="112.63636363636357" x2="278.4375" y2="112.63636363636357" fill="rgb(0, 0, 0)" stroke="rgb(66, 66, 66)" stroke-width="1px" opacity="0.25"></line><line x1="0" y1="96.54545454545446" x2="278.4375" y2="96.54545454545446" fill="rgb(0, 0, 0)" stroke="rgb(66, 66, 66)" stroke-width="1px" opacity="0.25"></line><line x1="0" y1="80.45454545454537" x2="278.4375" y2="80.45454545454537" fill="rgb(0, 0, 0)" stroke="rgb(66, 66, 66)" stroke-width="1px" opacity="0.25"></line><line x1="0" y1="64.36363636363625" x2="278.4375" y2="64.36363636363625" fill="rgb(0, 0, 0)" stroke="rgb(66, 66, 66)" stroke-width="1px" opacity="0.25"></line><line x1="0" y1="48.27272727272715" x2="278.4375" y2="48.27272727272715" fill="rgb(0, 0, 0)" stroke="rgb(66, 66, 66)" stroke-width="1px" opacity="0.25"></line><line x1="0" y1="32.181818181818215" x2="278.4375" y2="32.181818181818215" fill="rgb(0, 0, 0)" stroke="rgb(66, 66, 66)" stroke-width="1px" opacity="0.25"></line><line x1="0" y1="16.090909090909115" x2="278.4375" y2="16.090909090909115" fill="rgb(0, 0, 0)" stroke="rgb(66, 66, 66)" stroke-width="1px" opacity="0.25"></line><line x1="0" y1="0" x2="278.4375" y2="0" fill="rgb(0, 0, 0)" stroke="rgb(66, 66, 66)" stroke-width="1px" opacity="0.25"></line></g></g></g><g><g><line x1="0" y1="1544.727272727273" x2="278.4375" y2="1544.727272727273" fill="rgb(0, 0, 0)" stroke="rgb(153, 153, 153)" stroke-width="1.5px"></line></g></g><g><g><line x1="21.418269230769234" y1="0" x2="21.418269230769234" y2="177" fill="rgb(0, 0, 0)" stroke="rgb(153, 153, 153)" stroke-width="1.5px"></line></g></g><g><g><g><g><g><path stroke="rgb(238, 51, 119)" stroke-width="2px" d="M30.328269230769234,177.1255133262069L30.778052884615388,174.97649042877612L30.799471153846152,173.6091983462406L30.842307692307692,172.58844940413647L30.992235576923076,171.85124123194538L31.313509615384614,170.92419076665317L31.399182692307694,170.38495561409152L31.61336538461538,170.08155547390663L31.72045673076923,170.01380090220974L31.741875,169.98738109813246L31.870384615384616,169.6434810731639L32.363004807692306,168.854626382001L32.40584134615384,168.4899596133376L32.427259615384614,168.12952070964386L32.51293269230769,167.85690106742118L32.855624999999996,166.9490348120802L32.96271634615385,166.11079426149325L33.00555288461538,165.71503815593368L33.262572115384614,164.86779321375886L33.348245192307694,164.31851216260804L33.47675480769231,163.98222988147418L34.07646634615384,163.07015629588886L34.16213942307692,162.32065862946766L34.20497596153846,161.66978069861565L34.911778846153844,160.61843891789584L35.083125,159.5291490697594L35.21163461538462,158.79685281396468L35.23305288461539,158.34450812420323L35.53290865384615,157.8650165103195L35.72567307692308,157.5277556198593L35.89701923076923,157.28906864575498L36.88225961538462,156.2699360788797L36.96793269230769,155.61886518299733L37.37487980769231,155.04595662686052L37.8032451923077,154.02052660902044L38.03884615384615,153.2384247938702L38.06026442307692,152.76129914283212L38.18877403846154,152.32548198404842L38.317283653846154,151.8912015082253L38.65997596153846,151.44065609704333L38.68139423076923,151.13841023794063L38.98125,150.5186805303875L39.2596875,150.16341583152146L39.79514423076923,149.8238102015664L39.987908653846155,149.47518542888446L40.095,149.1919685918144L40.41627403846154,149.03159105506043L40.737548076923076,149.1452907914418L41.35867788461538,149.14365030494318L41.61569711538461,148.82374843512702L41.765625,148.51303324596557L42.83653846153847,147.31667928720654L42.90079326923077,146.70874059692093L42.943629807692304,146.33676500398764L43.17923076923077,146.21317185709003L43.32915865384616,146.11369591585083L43.41483173076923,146.03966232101706L43.45766826923077,145.89039412605018L43.650432692307696,145.71186774976675L44.05737980769231,145.3901836558277L44.35723557692308,144.98559730120706L44.378653846153846,144.77752628843905L44.50716346153847,144.35571014888188L44.699927884615384,144.11658485806967L44.956947115384615,143.6131812923859L45.042620192307695,143.3205382635963L45.08545673076923,143.12231785339918L45.19254807692308,142.8837675382393L45.23538461538462,142.70031708276636L45.535240384615385,142.490692964337L45.685168269230765,142.28055667999428L45.98502403846154,141.93622372440498L46.09211538461539,141.68665658821408L46.113533653846154,141.53534339411016L46.370552884615385,141.20140624044842L46.58473557692307,140.73088665441128L46.627572115384616,140.54889602227092L46.79891826923077,140.32840850049465L46.9916826923077,140.16956829539012L47.01310096153846,140.0731899882566L47.527139423076925,139.79250817297444L47.67706730769231,139.6181527076982L48.12685096153846,139.3187284745251L48.23394230769231,139.03932827089167L48.255360576923074,138.9031847602202L48.29819711538462,138.7882373113351L48.362451923076925,138.6535517950929L48.448125,138.49091067737263L48.57663461538462,138.24777406512888L48.66230769230769,138.08470515264764L48.76939903846154,137.89068596709353L49.24060096153846,137.6292979699017L49.81889423076923,137.39286045918715L50.247259615384614,137.07007466423963L50.56853365384615,136.75901021380466L50.654206730769225,136.51398196654517L50.88980769230769,136.29587705092365L50.91122596153846,136.22371058828395L51.789375,136.1880067266305L52.23915865384616,136.00257952023682L52.26057692307692,135.84969856365174L52.64610576923077,135.46015245603425L52.667524038461536,135.19937837110638L53.01021634615385,135.0241540626252L53.05305288461539,134.988227622678L53.43858173076923,134.74680929761988L53.60992788461539,134.39291440963768L53.78127403846154,134.1468174060475L53.84552884615385,134.00153775433623L54.59516826923077,133.4609108305081L54.659423076923076,133.16565273727684L54.95927884615384,132.97729567602698L55.02353365384615,132.8673889003393L55.130625,132.72997323049285L55.38764423076923,132.6476772834523L55.6232451923077,132.698160470108L55.730336538461536,132.73347602900475L55.77317307692307,132.78171178470015L56.28721153846154,132.77198261156377L56.458557692307686,132.78628605901204L57.20819711538462,132.61145119736895L57.40096153846154,132.32447608035972L57.52947115384615,132.0518547995221L57.893581730769235,131.80246239649506L57.93641826923077,131.64354293520873L58.00067307692308,131.5519509026851L58.08634615384616,131.39629092652092L59.457115384615385,130.9080939310373L59.49995192307692,130.61812973994228L59.75697115384616,130.41687462262686L59.82122596153847,130.30057174338862L59.99257211538461,130.18678683265415L60.99923076923077,129.871607004766L61.08490384615384,129.69972441688498L61.27766826923077,129.59997087123645L61.42759615384615,129.43266197303697L61.87737980769231,129.18499832524887L62.112980769230774,129.0019111551557L62.17723557692308,128.8654344336275L62.3057451923077,128.74104140247485L62.32716346153846,128.71025531210753L62.6484375,128.68572219062972L62.90545673076923,128.7118980398723L62.99112980769231,128.72384390516936L63.098221153846154,128.72893978363933L63.1410576923077,128.70433707089495L63.41949519230769,128.546939144115L63.44091346153846,128.4542267553038L63.54800480769231,128.3254013503265L63.78360576923077,128.08429303652258L63.82644230769231,127.92293983142396L65.77550480769231,127.39350027379615L65.96826923076924,127.0644425153241L66.18245192307693,126.83842689121057L66.41805288461538,126.5520097459268L66.71790865384615,126.29422473308192L66.73932692307693,126.14162536608312L66.825,126.0582372175662L66.84641826923077,125.99128592933904L66.99634615384616,125.94654987410114L67.25336538461538,125.85015482236558L67.89591346153847,125.79788053026299L68.4313701923077,125.57864883373838L68.75264423076922,125.44196907776991L68.88115384615385,125.28169924187782L69.39519230769231,125.17295404122599L69.50228365384616,125.09132561375304L71.04439903846155,124.61612766340947L71.10865384615384,124.31163521620972L71.60127403846154,124.05950142044729L71.96538461538462,123.67320501375627L72.71502403846155,123.03427304314097L73.61459134615384,122.51288120765669L73.7216826923077,122.21239922318176L74.00012019230769,121.95737751213343L74.17146634615385,121.76695986160583L74.23572115384616,121.61119972969098L74.66408653846153,121.41354779566159L74.94252403846153,121.27926587506477L75.0496153846154,121.17107484659698L75.34947115384615,121.12522699677537L75.3923076923077,121.0787666107737L75.58507211538462,121.02560868978921L75.62790865384615,120.99075993100337L76.39896634615386,120.83929894739643L76.63456730769231,120.72137593687476L76.65598557692307,120.66094197038609L76.87016826923076,120.54872143119134L77.10576923076924,120.36215467580074L77.25569711538462,120.23728604999822L77.53413461538462,120.14947466566574L77.70548076923076,120.07127596338147L77.87682692307692,119.96846080660542L77.9625,119.9018227930702L78.04817307692308,119.79604621060436L78.45512019230769,119.54732187260572L78.62646634615385,119.39659108485031L78.71213942307692,119.28658711661957L78.86206730769231,119.22403747019493L78.92632211538462,119.17941039472846L78.96915865384615,119.15040905387302L79.03341346153846,119.14835373608737L79.11908653846153,119.14267035426504L79.31185096153847,119.09575587029879L79.44036057692308,119.01650670911587L79.54745192307692,118.96730757258302L79.63312499999999,118.91131712605814L79.89014423076924,118.87242866522237L79.91156249999999,118.85174268518132L79.99723557692307,118.81305195113566L80.10432692307693,118.75895471866893L80.12574519230769,118.72177764202017L80.4041826923077,118.60950848009004L80.42560096153846,118.55212154930508L80.44701923076924,118.5057582749033L80.55411057692308,118.46205773149899L80.66120192307692,118.37641200810369L80.72545673076924,118.3185411059242L80.93963942307693,118.26705362036665L81.0895673076923,118.23320712283696L81.66786057692308,118.11979048359919L82.1390625,117.99668856642117L82.3532451923077,117.83635559840424L82.71735576923076,117.79275247335309L82.73877403846154,117.75519657442702L84.00245192307693,117.52875988017824L84.28088942307693,117.39331986451383L84.66641826923077,117.3802665436196L84.73067307692308,117.33948011833546L84.88060096153845,117.3198420914841L84.94485576923077,117.3091718231611L85.11620192307693,117.24257699047813L85.60882211538461,117.10180024306787L86.10144230769231,116.94471167868305L86.42271634615385,116.79068786924813L86.70115384615384,116.73276256500748L87.47221153846155,116.64851818776658L87.49362980769232,116.59405846230645L87.90057692307693,116.49436121374748L87.92199519230769,116.41773955664522L87.94341346153846,116.3549632544172L88.15759615384616,116.25326842970942L88.24326923076923,116.17705950302442L88.26468750000001,116.12753613904836L88.28610576923077,116.10050758084004L88.43603365384615,116.07711643086974L88.80014423076923,116.08230196301398L89.39985576923077,116.02533570176199L89.8068028846154,115.9651453450074L89.95673076923077,115.89703579112759L90.06382211538461,115.8378705658769L90.34225961538462,115.70508104487344L90.40651442307691,115.62084204996968L90.59927884615385,115.57532429993093L90.85629807692307,115.50504628707021L91.37033653846153,115.40253335279726L91.43459134615385,115.2935696745284L92.24848557692307,115.15737204631913L92.97670673076924,114.92967952689695L93.31939903846154,114.8593181541903L93.70492788461539,114.76277830755053L93.91911057692307,114.6418995402664L93.94052884615385,114.57198101263967L94.11187500000001,114.48587325800503L94.34747596153846,114.43367151318859L94.64733173076924,114.46258150170488L94.81867788461538,114.50072062933036L94.99002403846154,114.53258121564159L95.56831730769231,114.54540591786986L96.03951923076923,114.4937520692875L96.0609375,114.47683924421084L96.08235576923076,114.46350736066884L96.21086538461537,114.45930623850877L96.25370192307692,114.4273605944126L96.40362980769231,114.33994415573372L96.9605048076923,114.28557610668543L97.34603365384615,114.21370919495051L97.81723557692308,114.15884975056285L97.88149038461538,114.12228953083253L98.03141826923077,114.03939345296891L98.2884375,113.95858119562723L98.54545673076922,113.87921104918286L98.82389423076923,113.79790561794906L98.84531249999999,113.75725546717445L98.88814903846153,113.72684227316915L99.18800480769231,113.68327430366547L99.70204326923077,113.58036772460808L99.76629807692308,113.50980012230535L99.80913461538461,113.4725619352607L99.85197115384615,113.42785297612839L99.91622596153847,113.3867562979923L100.00189903846154,113.3887610742998L100.06615384615384,113.3866646604379L100.47310096153846,113.28642842272747L100.68728365384615,113.25183691550282L100.94430288461538,113.2073732341737L101.05139423076922,113.15552842714315L101.65110576923077,112.9751483207818L101.67252403846155,112.86411970563724L101.71536057692309,112.78653051354007L101.82245192307693,117.3526001263058L101.8438701923077,117.07520411216308L101.99379807692308,101.4883170733851L102.03663461538461,89.74167510113942L102.44358173076922,79.29788715983523L102.465,72.70893717288762L102.55067307692308,69.22260706927425L102.61492788461538,66.8080550575075L103.10754807692307,63.994918261777165L103.8571875,61.818167340913476L103.90002403846154,60.53425265299991L104.11420673076923,58.77534758525792L104.30697115384616,57.28964036933645L105.01377403846155,58.583758623249125L105.20653846153846,60.80631151737487L105.29221153846154,62.355255523789296L105.42072115384616,63.471990320582485L105.67774038461539,64.6987654571368L105.74199519230768,66.20820470642484L106.10610576923078,67.12284536573328L106.38454326923078,68.0101511985298L106.57730769230768,68.63767671591899L106.7058173076923,69.70930421139718L107.36978365384616,69.84396146083144L107.41262019230768,69.89847666447098L107.60538461538462,69.70764040874991L107.84098557692307,69.6449296730233L107.96949519230769,70.09256588563157L108.11942307692307,70.03643711403987L108.91189903846153,69.17226210938574L109.44735576923078,68.33272952425136L109.57586538461538,67.90136394309133L109.704375,67.55035658287908L109.7686298076923,67.29475152692312L110.23983173076924,66.81537362782097L110.45401442307691,66.53050907597068L110.98947115384615,65.7606176341643L111.22507211538462,65.06197863630696L111.54634615384614,64.36630793047738L111.84620192307692,64.30898735304345L111.97471153846153,64.26017024905924L112.38165865384615,64.49094762298515L112.44591346153847,64.52046109157453L112.51016826923076,64.27058224791514L112.61725961538463,63.97203390276238L113.13129807692307,63.148701362844825L113.92377403846153,61.9506509078309L114.03086538461538,61.078289040112494L114.13795673076923,60.61241749471005L114.26646634615385,60.44192425066845L115.16603365384616,60.4348854131052L115.23028846153846,60.54414198491822L115.57298076923077,60.86512155458733L116.15127403846154,61.012862111427296L116.19411057692308,61.16123875261847L116.42971153846153,61.411315620539725L116.60105769230769,61.29849355364819L116.83665865384616,61.41759325070544L117.09367788461539,61.319063439714206L117.58629807692309,61.13982875575915L117.7148076923077,61.006852801135196L118.35735576923076,60.650273011511L118.57153846153845,60.237869630631494L118.65721153846154,59.99391870033429L119.19266826923077,59.43674946245751L119.27834134615384,59.03416050379348L119.40685096153845,58.65480465778088L120.09223557692307,58.4054772864538L120.15649038461538,58.22542007250315L120.2207451923077,58.08715513527925L121.01322115384616,58.11706222782664L121.1203125,58.1087273373341L121.20598557692307,58.0651708676353L121.22740384615385,58.02944605661136L121.39874999999999,57.99788314875673L121.63435096153846,57.83262618809606L121.80569711538462,57.61753685947244L121.89137019230769,57.43124459680403L121.93420673076923,57.30170683831595L122.06271634615385,57.34064824606986L122.23406250000001,57.335201939391126L122.25548076923077,57.30212554741558L122.44824519230768,57.26632040603334L122.74810096153846,57.24790641854937L122.89802884615385,57.055167463204015L123.36923076923077,57.1188361024091L123.51915865384616,57.198086462928636L123.64766826923078,57.2157513438383L123.73334134615385,57.213153153798196L123.75475961538461,57.222988263669414L124.33305288461538,57.03265891806259L124.39730769230769,56.85711772750482L124.4615625,56.76667813529608L124.54723557692307,56.643935145448836L124.88992788461539,56.48757717807857L124.93276442307692,56.416090080844995L124.97560096153846,56.37691910303631L124.99701923076923,56.34601231900505L125.0184375,56.30157273973349L125.18978365384616,56.271494621373556L126.00367788461539,56.038073844135326L126.2821153846154,55.87983697602031L126.60338942307692,55.6324758082292L127.01033653846153,55.25901754469355L127.09600961538462,54.95898242727046L127.24593750000001,54.73595563026248L127.33161057692307,54.67875189454538L127.43870192307692,54.63054198762667L128.10266826923078,54.58013236205678L128.33826923076924,54.630795665486225L129.02365384615385,54.601614795323734L129.5376923076923,54.634324378542644L129.83754807692307,54.636379546170936L129.94463942307692,54.59433837417578L130.22307692307692,54.678948992231824L130.24449519230768,54.69392201527324L130.41584134615385,54.65863409988891L130.45867788461538,54.61148911437168L130.56576923076923,54.63069640448318L131.3582451923077,54.56108151747807L131.44391826923078,54.5272538746563L131.52959134615386,54.50039709338726L131.7651923076923,54.64218808305308L131.78661057692307,54.72193012021476L131.82944711538462,54.78780628941685L131.8508653846154,54.85061876704702L132.53625,55.04321894214066L132.77185096153846,55.114545681704534L132.8146875,55.11913146349106L132.92177884615384,55.0959106962764L132.96461538461537,55.057847458068366L133.07170673076925,55.00930582487489L133.20021634615387,54.976958292746L133.35014423076922,55.044673774364654L133.6285817307692,55.05967610050082L133.94985576923077,55.02010903068944L134.1426201923077,55.01823610738973L134.206875,55.042010405625334L134.84942307692307,55.039893677484955L135.34204326923077,55.261478471602636L135.36346153846154,55.40229391002111L135.42771634615383,55.472013142096856L135.4705528846154,55.52953544152126L135.55622596153847,55.62078875835146L135.6847355769231,55.6586223493324L136.2844471153846,55.59573305169755L136.45579326923078,55.58193843241174L136.94841346153845,55.61217883252674L137.1411778846154,55.58793116551071L137.16259615384615,55.544417959102546L137.46245192307694,55.55003682906699L137.61237980769232,55.54508322449599L138.06216346153846,55.54122869626644L138.2549278846154,55.48631932356984L138.3191826923077,55.47520265482192L138.36201923076922,55.45951718012063L139.32584134615385,55.22993652447531L139.43293269230767,55.10527015852346L139.45435096153847,55.037605990280596L139.6899519230769,55.06402890261775L139.73278846153846,55.037337288067775L140.20399038461537,54.873238372416054L140.67519230769233,54.70775760974213L141.46766826923078,54.668815278694325L142.51716346153847,54.68837887918613L142.81701923076923,54.74043730585797L144.01644230769233,54.68274526627463L144.16637019230768,54.591658651366814L144.38055288461538,54.48015165409618L144.63757211538461,54.46020464512034L144.7018269230769,54.44739243796493L144.74466346153847,54.422403077386214L144.76608173076923,54.40380327165816L145.25870192307693,54.399472129815116L145.4300480769231,54.319033463283375L146.35103365384614,54.04492306245047L147.0792548076923,53.787501536098006L147.35769230769233,53.60995366276144L147.37911057692307,53.50020238654672L147.4219471153846,53.43734399072984L148.83555288461537,53.550628542639636L148.94264423076925,53.66655391980928L149.00689903846154,53.72651821690629L149.17824519230768,53.68258517303038L149.54235576923077,53.64824569360651L149.7351201923077,53.62660618559807L149.88504807692306,53.538276140960384L150.0135576923077,53.466978621254874L150.1420673076923,53.414877726244676L150.913125,53.29369263701465L151.08447115384615,53.22370540737065L151.57709134615385,53.05430716602836L151.61992788461538,52.981517736270874L151.64134615384614,52.935005163371606L152.32673076923078,52.89344013644454L152.3695673076923,52.86286165391593L152.7979326923077,52.662210182074546L152.90502403846153,52.54515694233309L152.94786057692306,52.45267404273307L152.99069711538462,52.39181338261839L153.5475721153846,52.49394345913368L154.34004807692307,52.52986308822536L154.4685576923077,52.559969974531L154.68274038461539,52.52704872666207L154.76841346153847,52.504917427497915L154.85408653846153,52.47303224534206L155.1539423076923,52.40943758825506L155.32528846153846,52.3426230975392L155.925,52.37461982701267L155.96783653846154,52.380774200978216L156.11776442307692,52.31115376251646L156.28911057692306,52.21770557288406L156.31052884615383,52.143337166181915L156.37478365384615,52.09127356109774L156.67463942307694,52.033372614857896L156.9744951923077,51.97223780994269L157.06016826923076,51.96479007920949L157.1030048076923,51.93987357970518L157.3814423076923,51.909002737522606L157.61704326923075,51.87175873840546L157.63846153846154,51.84703378849236L157.7455528846154,51.8587081468662L157.78838942307692,51.88401225481333L157.85264423076924,51.891982340819766L158.6451201923077,51.76391084107915L159.03064903846152,51.73590495274539L159.43759615384616,51.779946274620265L159.56610576923075,51.807368524382476L159.78028846153848,51.845267191941666L160.0801442307692,51.924324328767526L160.46567307692308,51.97417552502251L160.52992788461538,51.99718077374802L161.25814903846154,52.06381076104326L161.32240384615383,52.10413402687182L161.51516826923077,52.12215142796115L161.64367788461539,52.13365241551753L161.7507692307692,52.17224143814399L162.0292067307692,52.20866869773896L162.13629807692308,52.183452772959065L162.4789903846154,52.089831053479266L162.58608173076922,52.03672711913706L162.69317307692307,51.979659796581565L162.77884615384616,51.96483144375859L163.12153846153845,52.026063306410265L163.4213942307692,52.06679225055039L163.8497596153846,52.04730316127666L164.10677884615384,52.00952238027536L164.36379807692308,51.995409020525194L165.1134375,51.987094459542575L165.26336538461538,51.97401097870404L165.37045673076923,51.95553414064204L165.41329326923076,51.92668563691754L165.45612980769232,51.87811010547528L165.58463942307694,51.843171865370444L165.6703125,51.827311295644336L166.0130048076923,51.80463619893976L166.24860576923078,51.788345680739745L166.5698798076923,51.7743129972528L166.7626442307692,51.72756803405838L167.12675480769232,51.717820549064506L167.5337019230769,51.76529762444656L167.74788461538463,51.81265881835071L167.87639423076922,51.848403004605814L167.98348557692307,51.885732095121945L168.02632211538463,51.89754116358945L168.15483173076922,51.89894877458079L168.34759615384615,51.84930668984164L168.69028846153844,51.806938139881375L169.52560096153846,51.80023850371315L169.5684375,51.798635636171745L169.6326923076923,51.79813428024869L169.86829326923078,51.83949646316048L170.01822115384613,51.825297872902446L170.8321153846154,51.768210253254644L171.1748076923077,51.72202656553531L171.28189903846155,51.67858722900796L171.32473557692308,51.63633413859387L171.3889903846154,51.60534281797293L171.75310096153845,51.573243997280144L171.96728365384615,51.523025185391326L171.98870192307692,51.49105243985091L172.30997596153844,51.45023165624054L172.52415865384614,51.42562409492389L173.23096153846154,51.31464335635175L173.72358173076924,51.272991329140886L173.87350961538462,51.25939413670972L173.9377644230769,51.25184964071993L174.06627403846156,51.2187803378128L174.88016826923078,51.12643133128044L175.15860576923077,51.08966669373511L175.18002403846154,51.065881543950965L175.2228605769231,51.036418422220166L175.35137019230768,51.020121642987284L175.415625,51.02273505597993L175.80115384615385,51.02253837280198L176.1866826923077,51.01486271068187L176.70072115384613,50.9811392523439L176.78639423076922,50.97717139327263L177.04341346153845,51.017527858366265L177.2361778846154,51.06080850468131L177.8358894230769,51.03406514556105L177.96439903846155,51.01372239380523L178.52127403846154,51.01475222505439L178.6069471153846,51.00313209813845L178.64978365384616,50.9760957980926L178.92822115384615,50.94978436054176L179.0353125,50.97040466527253L179.2280769230769,50.945832588814255L179.44225961538461,50.964772686306404L179.6136057692308,50.94651995541722L180.29899038461537,50.944545426619605L180.44891826923077,50.926634128807805L180.68451923076924,50.843801926217466L180.7059375,50.78708204448547L181.30564903846155,50.76348504642111L181.3913221153846,50.72684570952661L181.43415865384614,50.707163930399005L181.69117788461537,50.655188051412985L182.20521634615383,39.12816132431971L182.46223557692306,33.72428136878844L182.63358173076924,28.756775413832877L182.76209134615382,28.078862124340073L182.99769230769232,30.414889720906892L183.16903846153846,33.117535007332336L183.21187500000002,35.09728583941028L183.3403846153846,34.53452321276927L183.46889423076922,34.28828637396449L184.06860576923077,31.631173553546255L184.21853365384615,30.274185449821204L184.26137019230768,29.71714458142461L184.30420673076924,29.055600828486195L184.36846153846156,29.307865392735586L185.03242788461537,30.908912262444172L185.05384615384614,31.734154827614883L185.16093750000002,32.135155805643315L185.46079326923078,33.130409066008035L185.5036298076923,33.735425584174926L185.52504807692307,33.97812687913051L186.81014423076925,35.50292327574939L186.93865384615384,36.31287634822049L187.00290865384616,36.70489544921326L187.55978365384615,36.66127941596792L187.58120192307692,36.712451049127814L187.64545673076924,36.74046856884671L187.666875,36.679630917836256L188.37367788461538,37.103224383041L188.39509615384617,37.35530882145561L188.95197115384616,36.58268445606742L189.31608173076924,35.897444281053986L189.4017548076923,35.43389533887119L189.57310096153847,35.11180115408676L189.6801923076923,34.70140600602012L189.70161057692306,34.4575474676229L189.8301201923077,34.15896675252987L190.25848557692308,33.29667561807681L190.53692307692307,32.93605508432776L190.6654326923077,32.492262650774784L191.008125,31.90806706936343L191.20088942307692,31.17721183197226L191.24372596153847,30.797011539102403L191.26514423076924,30.480884996997645L192.48598557692307,30.49879514344275L193.34271634615385,29.880453002910752L193.40697115384617,29.44998395752215L193.42838942307694,29.273033609945287L193.47122596153847,29.102182174842333L193.77108173076925,29.0382268491836L193.9424278846154,28.824301285624312L194.43504807692307,28.67933445810611L194.45646634615383,28.562929390794938L194.8419951923077,28.957977870821704L195.3988701923077,29.370636054435472L195.57021634615384,29.52224494512239L195.82723557692307,29.47371980518032L195.87007211538463,29.48423444068941L196.2770192307692,29.385541729060982L196.29843749999998,29.300277138363818L196.74822115384617,29.452484446803375L196.89814903846153,29.366990461047937L197.0694951923077,29.490977891741093L197.09091346153843,29.56909163068856L197.4121875,29.670513079373585L197.69062499999998,29.473715226427736L197.71204326923078,29.35951125005898L198.2475,29.330580219994946L198.71870192307694,29.029521916079446L198.84721153846152,28.692631515126106L198.91146634615384,28.426046230298073L198.9328846153846,28.244726469133123L199.0185576923077,28.00020378232824L199.12564903846155,27.874973851663988L199.2327403846154,27.745858143700865L200.26081730769232,27.366888268442217L200.32507211538461,27.129186503462513L200.56067307692308,26.871627748884816L200.7534375,26.480695273099112L200.86052884615384,26.200904965497788L201.28889423076922,26.193084207506327L201.58875,26.294045428831303L201.69584134615386,26.310081886399367L202.5739903846154,26.047781736126524L202.65966346153846,25.949750315881836L203.30221153846153,25.895113108868273L203.58064903846153,25.83605163863923L203.9447596153846,25.77180360517052L204.13752403846155,25.730991325797113L204.33028846153846,25.723614175874342L204.5230528846154,25.62097677086387L204.65156249999998,25.526631713694126L204.67298076923078,25.474129597091856L204.84432692307692,25.342805935967338L205.65822115384614,25.106260135732487L205.7653125,24.98501069895703L206.02233173076922,24.889281170517155L206.06516826923078,24.82209906938121L206.08658653846155,24.767940506928L206.21509615384613,24.61732348537016L206.90048076923077,24.431887982157974L206.98615384615385,24.302634097042343L207.6501201923077,23.9634412172668L207.7786298076923,23.869146991185556L208.0570673076923,23.750037597121707L208.16415865384613,23.649799173068995L208.29266826923077,23.548875487658822L208.72103365384615,23.586762573770393L208.89237980769232,23.593420428090056L208.93521634615385,23.557363420322798L209.40641826923078,23.591778605934934L209.4492548076923,23.63598303942938L209.66343750000001,23.638912013682315L209.89903846153845,23.698636974347608L209.98471153846154,23.718857918001405L210.3488221153846,23.749443431983643L210.41307692307691,23.794227341261337L210.6272596153846,23.797810910718827L211.31264423076922,23.8719697488627L211.4197355769231,23.963652423436432L211.56966346153845,23.999441806054293L211.80526442307692,24.146326425906782L211.93377403846154,24.341300149159363L212.08370192307692,24.510113764533212L212.42639423076923,24.620455770927006L212.51206730769232,24.75609930220574L212.91901442307693,24.799083340436997L213.47588942307692,24.56250430405026L213.5615625,24.4336005459367L213.75432692307692,24.426156983112822L213.88283653846156,24.386588044529024L213.90425480769233,24.379573261912004L213.98992788461538,24.36105472596814L214.3326201923077,24.32028845130081L214.91091346153846,24.17014915020107L215.25360576923077,24.02685509431307L215.44637019230768,24.008206983797887L215.59629807692306,24.16017900512016L215.7033894230769,24.240773832071618L216.71004807692307,24.414311536222964L216.79572115384616,24.542219663141644L217.4596875,24.668492097706363L217.63103365384615,24.7539999425171L217.6524519230769,24.79594390249976L217.69528846153847,24.802388784681472L217.71670673076923,24.82106410868291L218.20932692307693,24.763099521658994L218.27358173076922,24.724599488912983L218.33783653846154,24.709670940948083L218.48776442307692,24.68421741393687L218.55201923076925,24.665262380915507L218.65911057692307,24.690987075266605L218.74478365384616,24.693646774176635L218.93754807692306,24.6959331404252L218.95896634615383,24.699990420351835L219.04463942307692,24.689764761757605L219.21598557692306,24.61215776216706L219.60151442307694,24.498955786298158L219.6229326923077,24.43372006095395L220.43682692307692,24.304462254939423L220.69384615384615,24.20331388548711L220.7366826923077,24.203699900991612L220.88661057692306,24.166987250997483L221.1007932692308,24.116340328254015L221.12221153846153,24.110658408239416L221.20788461538461,24.106865619062436L221.25072115384614,24.08790172874001L221.33639423076923,24.065167734368057L221.40064903846152,24.026629285529335L221.59341346153846,23.9293107878981L221.74334134615384,23.878822614983964L221.89326923076925,23.834757136897444L222.02177884615384,23.813535315533027L222.0431971153846,23.781927274039344L222.17170673076924,23.778960119056674L222.27879807692307,23.811822262354607L222.4929807692308,23.82574662709388L222.70716346153847,23.849523460098776L222.83567307692306,23.826500027153507L223.1569471153846,23.841036754115528L223.58531250000001,23.838441493831088L223.6495673076923,23.823802310225183L223.69240384615384,23.820121174398416L223.97084134615383,23.74805216457495L224.1421875,23.755987956917526L224.27069711538462,23.72487935709734L224.31353365384615,23.69086871047753L224.65622596153847,23.640116622501647L224.67764423076923,23.602107717502694L224.69906250000003,23.581834379813575L225.34161057692307,23.60500336039046L225.72713942307692,23.643534254934387L225.91990384615383,23.668992978386786L226.11266826923077,23.62791191245083L226.32685096153847,23.64718972864738L226.4339423076923,23.64172292809745L226.90514423076925,23.72971013008028L227.0764903846154,23.782157177818476L227.20499999999998,23.78949462858209L227.48343749999998,23.72000858044683L228.19024038461538,23.75546638608885L228.51151442307693,23.792470193369788L228.57576923076925,23.812217199861998L228.5971875,23.807837551542885L228.6614423076923,23.775094244848237L228.85420673076925,23.812802017476113L228.9398798076923,23.86285673857847L229.0255528846154,23.87432153229937L229.28257211538462,23.953592742169654L229.3039903846154,23.994249999064348L229.45391826923077,24.01584380187323L229.9679567307692,24.27877806235168L230.01079326923076,24.431666426602806L230.3320673076923,24.518412161967106L230.35348557692308,24.57253124389385L230.4819951923077,24.599478317827725L230.54625,24.603983992275282L230.73901442307692,24.625063617300153L231.0817067307692,24.582122366644008L231.14596153846153,24.56249581094147L231.29588942307694,24.52992674300409L231.61716346153844,24.43645841993123L231.85276442307693,24.333727146435688L232.13120192307693,24.281640947826084L232.40963942307692,24.242678121579775L232.77374999999998,24.185885628482584L232.9236778846154,24.132206273329807L233.330625,23.953756171723697L233.35204326923076,23.848757751468426L233.50197115384617,23.766845386923407L233.56622596153844,23.732314544304362L233.63048076923076,23.701161107758068L233.8232451923077,23.701152175921315L233.84466346153846,23.71986831062705L234.25161057692307,23.761673873755147L234.42295673076922,23.786527029331154L234.5086298076923,23.825953337724105L234.53004807692307,23.83518436523608L234.55146634615386,23.834546423335272L234.67997596153845,23.8134856148294L234.76564903846153,23.808943873974567L235.04408653846153,23.824134685216176L235.17259615384617,23.845218651608747L235.34394230769232,23.85756212170974L235.47245192307693,23.868766211735508L236.97173076923076,23.766842619719323L237.55002403846154,23.68827133707382L238.21399038461539,23.67020826483519L238.29966346153844,23.682350287866573L238.32108173076924,23.67620820079872L238.57810096153844,23.710579755642684L239.19923076923078,23.63452612216499L239.67043269230768,23.607960709337526L239.7132692307692,23.58830018110957L240.07737980769232,23.58597970222704L240.22730769230768,23.619805306937387L240.27014423076923,23.636379389232133L240.4414903846154,23.683191370472144L241.38389423076922,23.688720693726555L241.51240384615386,23.681142992102615L241.61949519230768,23.700074965821408L241.9621875,23.704029952706705L242.1121153846154,23.733219182894462L242.81891826923078,23.787293343135637L242.94742788461537,23.78770413573637L243.0116826923077,23.786109152889512L243.03310096153845,23.79397581804975L243.67564903846156,23.864374500340325L244.08259615384614,23.87622964599393L244.27536057692308,23.84317592187638L244.51096153846154,23.800709094482677L245.1535096153846,23.80553633433351L245.28201923076924,23.852550952586096L245.3034375,23.909685966019L245.34627403846156,23.940475875848293L245.4319471153846,23.931558127937038L246.3529326923077,23.869275723430796L246.71704326923077,23.78663709488068L247.20966346153847,23.649354461102078L247.42384615384614,23.53099971445857L247.5309375,23.461789961163127L247.63802884615387,23.40894681272421L247.8950480769231,23.43006776172074L248.06639423076922,23.442932149702656L248.38766826923077,23.403885411689284L248.7731971153846,23.390815572422422L248.8374519230769,23.381477483906455L248.90170673076923,23.367894977698302L249.18014423076923,23.36181711468182L249.39432692307693,23.36814496324484L249.43716346153846,23.375202588312284L249.8226923076923,23.376828430608946L250.76509615384614,23.404274900592384L250.97927884615385,23.386599074613194L251.12920673076923,23.36218264097081L251.23629807692305,23.336829303792896L251.57899038461537,23.26652700413424L251.72891826923077,23.22319471283439L251.75033653846154,23.192630055752947L251.96451923076924,23.159482866812073L252.00735576923077,23.136640547252277L252.13586538461539,23.07720560506813L252.6713221153846,23.002336921168666L252.82125000000002,22.968694643573752L252.9497596153846,22.933815973474896L253.20677884615384,22.88975545017381L253.6565625,22.77059403264148L254.1491826923077,22.724378871505817L254.3419471153846,22.69319704031054L254.36336538461538,22.670152841592873L254.83456730769228,22.614509871029476L254.92024038461537,22.581661180727167L255.07016826923078,22.53778282494947L255.37002403846157,22.545676246885602L256.33384615384614,22.58643583014036L256.5266105769231,22.61334685796977L256.8050480769231,22.620861638383026L257.51185096153847,22.630549608401424L257.53326923076924,22.626502915190166L257.64036057692306,22.64885786032852L257.79028846153847,22.644546790241094L257.81170673076923,22.64349469686134L258.19723557692305,22.6307405063186L258.4328365384615,22.600376671636223L259.05396634615386,22.603795507112643L259.1610576923077,22.613404460611868L259.5680048076923,22.586560673415214L259.6965144230769,22.590595352427297L259.7179326923077,22.594512344790427L259.8464423076923,22.583703785339257L259.88927884615384,22.585735394802462L260.44615384615383,22.6036809410136L260.6817548076923,22.619742461661332L260.81026442307694,22.5999544032498L261.15295673076923,22.51910360536206L261.40997596153846,22.510222846103513L261.4956490384615,22.505354755150147L261.58132211538464,22.47584784482243L261.7098317307692,22.45622551278484L261.83834134615387,22.437124643650076L261.85975961538463,22.421751023053513L261.8811778846154,22.41402303565153L262.1381971153846,22.405588235245208L262.3737980769231,22.363084367386236" style="fill: none;" fill="none"></path></g></g></g></g><g opacity="0.2"><g><g><g><path stroke="rgb(238, 51, 119)" stroke-width="2px" d="M30.04983173076923,177.32442277128044L30.328269230769234,175.21106152100995L30.778052884615388,171.752956086939L30.799471153846152,171.5582602240822L30.842307692307692,171.05732599171722L30.992235576923076,170.7454289739782L31.313509615384614,169.5336150689558L31.399182692307694,169.57610288533294L31.61336538461538,169.62645526365796L31.72045673076923,169.912169044668L31.741875,169.94775139201766L31.870384615384616,169.12763103571803L32.363004807692306,167.67134434526614L32.40584134615384,167.94295946034515L32.427259615384614,167.58886235410515L32.51293269230769,167.4479716040871L32.855624999999996,165.58723542907018L32.96271634615385,164.85343343561343L33.00555288461538,165.12140399759463L33.262572115384614,163.59692580049685L33.348245192307694,163.49459058588198L33.47675480769231,163.47780645977363L34.07646634615384,161.70204591751096L34.16213942307692,161.1964121298356L34.20497596153846,160.69346380233762L34.911778846153844,159.04142624681643L35.083125,157.89521429755467L35.21163461538462,157.69840843027285L35.23305288461539,157.66599108956072L35.53290865384615,157.14577908949414L35.72567307692308,157.02186428416854L35.89701923076923,156.9310381845994L36.88225961538462,154.7412372285669L36.96793269230769,154.6422588391737L37.37487980769231,154.1865937926552L37.8032451923077,152.4823815822601L38.03884615384615,152.06527207114476L38.06026442307692,152.045610666275L38.18877403846154,151.67175624587315L38.317283653846154,151.23978079449043L38.65997596153846,150.76483798027036L38.68139423076923,150.68504144928667L38.98125,149.58908596905792L39.2596875,149.6305187832225L39.79514423076923,149.31440175663337L39.987908653846155,148.95224826986137L40.095,148.76714333620936L40.41627403846154,148.7910247499292L40.737548076923076,149.3158403960141L41.35867788461538,149.14118957519528L41.61569711538461,148.34389563040295L41.765625,148.04696046222335L42.83653846153847,145.52214834906835L42.90079326923077,145.7968325614929L42.943629807692304,145.77880161458793L43.17923076923077,146.0277821367437L43.32915865384616,145.96448200399223L43.41483173076923,145.9286119287664L43.45766826923077,145.6664918336001L43.650432692307696,145.44407818534154L44.05737980769231,144.9076575149189L44.35723557692308,144.37871776927597L44.378653846153846,144.46541976928708L44.50716346153847,143.72298593954602L44.699927884615384,143.75789692185137L44.956947115384615,142.85807594386011L45.042620192307695,142.88157372041178L45.08545673076923,142.82498723810363L45.19254807692308,142.525942065499L45.23538461538462,142.42514139955688L45.535240384615385,142.1762567866932L45.685168269230765,141.96535225348035L45.98502403846154,141.4197242910211L46.09211538461539,141.31230588392773L46.113533653846154,141.3083736029538L46.370552884615385,140.70050050995562L46.58473557692307,140.0251072753559L46.627572115384616,140.2759100740606L46.79891826923077,139.99767721783027L46.9916826923077,139.93130798773328L47.01310096153846,139.92862252755594L47.527139423076925,139.371485450051L47.67706730769231,139.35661950978363L48.12685096153846,138.86959212476555L48.23394230769231,138.6202279654416L48.255360576923074,138.69896949421272L48.29819711538462,138.61581613800738L48.362451923076925,138.45152352072972L48.448125,138.24694900079203L48.57663461538462,137.88306914676315L48.66230769230769,137.84010178392577L48.76939903846154,137.59965718876228L49.24060096153846,137.23721597411412L49.81889423076923,137.0382041931152L50.247259615384614,136.58589597181836L50.56853365384615,136.29241353815246L50.654206730769225,136.14643959565592L50.88980769230769,135.96871967749158L50.91122596153846,136.1154608943245L51.789375,136.13445093414995L52.23915865384616,135.72443871064615L52.26057692307692,135.6203771287744L52.64610576923077,134.87583329460833L52.667524038461536,134.80821724371472L53.01021634615385,134.7613175999034L53.05305288461539,134.9343379627574L53.43858173076923,134.3846818100322L53.60992788461539,133.86207207766444L53.78127403846154,133.77767190066248L53.84552884615385,133.7836182767694L54.59516826923077,132.64997044476593L54.659423076923076,132.7227655974301L54.95927884615384,132.6947600841522L55.02353365384615,132.70252873680803L55.130625,132.52384972572324L55.38764423076923,132.5242333628914L55.6232451923077,132.77388525009152L55.730336538461536,132.78644936734975L55.77317307692307,132.85406541824338L56.28721153846154,132.7573888518593L56.458557692307686,132.80774123018432L57.20819711538462,132.3491989049044L57.40096153846154,131.89401340484616L57.52947115384615,131.64292287826535L57.893581730769235,131.4283737919547L57.93641826923077,131.40516374327916L58.00067307692308,131.41456285389984L58.08634615384616,131.1628009622747L59.457115384615385,130.17579843781206L59.49995192307692,130.18318345329973L59.75697115384616,130.11499194665384L59.82122596153847,130.12611742453137L59.99257211538461,130.0161094665527L60.99923076923077,129.39883726293388L61.08490384615384,129.44190053506327L61.27766826923077,129.45034055276346L61.42759615384615,129.1816986257379L61.87737980769231,128.8135028535669L62.112980769230774,128.72728040001604L62.17723557692308,128.66071935133496L62.3057451923077,128.55445185574615L62.32716346153846,128.66407617655662L62.6484375,128.64892250841308L62.90545673076923,128.75116181373593L62.99112980769231,128.74176270311523L63.098221153846154,128.73658360134468L63.1410576923077,128.6674330017783L63.41949519230769,128.31084225394505L63.44091346153846,128.3151581720872L63.54800480769231,128.13216324286023L63.78360576923077,127.72263056581666L63.82644230769231,127.68091002377592L65.77550480769231,126.5993409373543L65.96826923076924,126.57085587761614L66.18245192307693,126.49940345504064L66.41805288461538,126.12238402800124L66.71790865384615,125.90754721381444L66.73932692307693,125.912726315585L66.825,125.93315499479118L66.84641826923077,125.89085899699815L66.99634615384616,125.87944579124446L67.25336538461538,125.70556224476204L67.89591346153847,125.71946909210894L68.4313701923077,125.24980128895149L68.75264423076922,125.2369494438171L68.88115384615385,125.04129448803984L69.39519230769231,125.0098362402482L69.50228365384616,124.96888297254387L71.04439903846155,123.90333073789421L71.10865384615384,123.85489654541011L71.60127403846154,123.68130072680381L71.96538461538462,123.09376040371977L72.71502403846155,122.07587508721781L73.61459134615384,121.73079345443028L73.7216826923077,121.76167624646965L74.00012019230769,121.57484494556074L74.17146634615385,121.48133338581428L74.23572115384616,121.37755953181868L74.66408653846153,121.11706989461723L74.94252403846153,121.07784299416971L75.0496153846154,121.0087883038954L75.34947115384615,121.05645522204307L75.3923076923077,121.00907603177153L75.58507211538462,120.94587180831212L75.62790865384615,120.93848679282445L76.39896634615386,120.61210747198622L76.63456730769231,120.5444914210926L76.65598557692307,120.57029102065343L76.87016826923076,120.38039062239903L77.10576923076924,120.08230454271485L77.25569711538462,120.04998311129478L77.53413461538462,120.01775758916679L77.70548076923076,119.95397790995506L77.87682692307692,119.81423807144161L77.9625,119.80186577276747L78.04817307692308,119.63738133690569L78.45512019230769,119.17423536560747L78.62646634615385,119.1704949032176L78.71213942307692,119.1215811642733L78.86206730769231,119.1302130005576L78.92632211538462,119.11246978152876L78.96915865384615,119.10690704259001L79.03341346153846,119.1452707594091L79.11908653846153,119.13414528153154L79.31185096153847,119.0253841443495L79.44036057692308,118.89763296734199L79.54745192307692,118.89350886778395L79.63312499999999,118.82733145627104L79.89014423076924,118.81409597396846L79.91156249999999,118.82071371511977L79.99723557692307,118.7550158500671L80.10432692307693,118.6778088699687L80.12574519230769,118.66601202704686L80.4041826923077,118.44110473719505L80.42560096153846,118.46604115312745L80.44701923076924,118.43621336330061L80.55411057692308,118.3965069163929L80.66120192307692,118.24794342301104L80.72545673076924,118.23173475265499L80.93963942307693,118.18982239203017L81.0895673076923,118.1824373765425L81.66786057692308,117.94966552474278L82.1390625,117.81203569065437L82.3532451923077,117.59585614637892L82.71735576923076,117.72734778577629L82.73877403846154,117.69886272603813L84.00245192307693,117.18910483880472L84.28088942307693,117.19015984101725L84.66641826923077,117.360686562278L84.73067307692308,117.27830048040907L84.88060096153845,117.29038505120707L84.94485576923077,117.29316642067644L85.11620192307693,117.14268474145365L85.60882211538461,116.89063512195234L86.10144230769231,116.70907883210612L86.42271634615385,116.55965215509583L86.70115384615384,116.64587460864668L87.47221153846155,116.5221516219052L87.49362980769232,116.51236887411635L87.90057692307693,116.34481534090904L87.92199519230769,116.30280707099217L87.94341346153846,116.26079880107527L88.15759615384616,116.10072619264771L88.24326923076923,116.06274611299683L88.26468750000001,116.05325109308411L88.28610576923077,116.05996474352744L88.43603365384615,116.04202970591453L88.80014423076923,116.09008026123043L89.39985576923077,115.93988630988378L89.8068028846154,115.87485980987545L89.95673076923077,115.79487146030769L90.06382211538461,115.74912272800093L90.34225961538462,115.50589676336806L90.40651442307691,115.49448355761436L90.59927884615385,115.50704767487261L90.85629807692307,115.39962926777922L91.37033653846153,115.24876395138823L91.43459134615385,115.13012415712525L92.24848557692307,114.95307560400526L92.97670673076924,114.58814074776384L93.31939903846154,114.75377609513018L93.70492788461539,114.61796853759068L93.91911057692307,114.46058138934043L93.94052884615385,114.4671032211997L94.11187500000001,114.35671162605281L94.34747596153846,114.35536889596415L94.64733173076924,114.50594648447898L94.81867788461538,114.55792932076884L94.99002403846154,114.58037209510799L95.56831730769231,114.56464297121217L96.03951923076923,114.41627129641441L96.0609375,114.4514700065959L96.08235576923076,114.44350953535597L96.21086538461537,114.45300455526869L96.25370192307692,114.37944212826811L96.40362980769231,114.20881949771528L96.9605048076923,114.20402403311293L97.34603365384615,114.10590882734816L97.81723557692308,114.07656058398155L97.88149038461538,114.06744920123701L98.03141826923077,113.91504933617327L98.2884375,113.83736280961466L98.54545673076922,113.76015582951628L98.82389423076923,113.67594747109843L98.84531249999999,113.69628024101253L98.88814903846153,113.68122248216105L99.18800480769231,113.61792234940958L99.70204326923077,113.42600785602217L99.76629807692308,113.40394871885121L99.80913461538461,113.41670465469356L99.85197115384615,113.36078953742977L99.91622596153847,113.32511128078804L100.00189903846154,113.39176823876116L100.06615384615384,113.38352003964506L100.47310096153846,113.13607406616207L100.68728365384615,113.19994965466582L100.94430288461538,113.14067771218035L101.05139423076922,113.07776121659708L101.65110576923077,112.70457816123958L101.67252403846155,112.6975767829201L101.71536057692309,112.67014672539446L101.82245192307693,124.2017045454545L101.8438701923077,116.65911009094927L101.99379807692308,78.10798651521851L102.03663461538461,72.12171214277089L102.44358173076922,63.63220524787897L102.465,62.825512192466L102.55067307692308,63.99311191385438L102.61492788461538,63.18622703985729L103.10754807692307,59.77521306818177L103.8571875,58.55304095961825L103.90002403846154,58.60838062112977L104.11420673076923,56.13698998364531L104.30697115384616,55.0610795454545L105.01377403846155,60.52493600411844L105.20653846153846,64.14014085856346L105.29221153846154,64.67867153341115L105.42072115384616,65.14709251577199L105.67774038461539,66.53892816196785L105.74199519230768,68.47236358035688L106.10610576923078,68.49480635469605L106.38454326923078,69.34110994772472L106.57730769230768,69.57896499200297L106.7058173076923,71.31674545461476L107.36978365384616,70.04594733498308L107.41262019230768,69.98024946993043L107.60538461538462,69.42138602516863L107.84098557692307,69.55086356943299L107.96949519230769,70.76402020454402L108.11942307692307,69.95224395665251L108.91189903846153,67.87599960240446L109.44735576923078,67.07343064654951L109.57586538461538,67.25431557135143L109.704375,67.02384554256086L109.7686298076923,66.91134394298896L110.23983173076924,66.09630677916782L110.45401442307691,66.10321224819526L110.98947115384615,64.6057804714549L111.22507211538462,64.01402013952077L111.54634615384614,63.32280187173318L111.84620192307692,64.22300648689264L111.97471153846153,64.18694459308271L112.38165865384615,64.83711368387391L112.44591346153847,64.56473129445851L112.51016826923076,63.895763982425976L112.61725961538463,63.52421138503329L113.13129807692307,61.91370255296876L113.92377403846153,60.153575225309844L114.03086538461538,59.76974623853505L114.13795673076923,59.91361017660656L114.26646634615385,60.186184384606044L115.16603365384616,60.424327156760434L115.23028846153846,60.708026842637445L115.57298076923077,61.346590909090864L116.15127403846154,61.23447294668713L116.19411057692308,61.383803714405346L116.42971153846153,61.78643092242149L116.60105769230769,61.129260453310835L116.83665865384616,61.596242796290966L117.09367788461539,61.17126872322772L117.58629807692309,60.870976729826445L117.7148076923077,60.80738886919883L118.35735576923076,60.11540332707487L118.57153846153845,59.61926455931225L118.65721153846154,59.62799230488859L119.19266826923077,58.6009956056421L119.27834134615384,58.430277065797235L119.40685096153845,58.08577088876199L120.09223557692307,58.031486229463006L120.15649038461538,57.955334251577156L120.2207451923077,57.87975772944358L121.01322115384616,58.16192286664784L121.1203125,58.09622500159518L121.20598557692307,57.999836163087274L121.22740384615385,57.97585884007536L121.39874999999999,57.950538786974775L121.63435096153846,57.58474074710493L121.80569711538462,57.29490286653687L121.89137019230769,57.15180620280174L121.93420673076923,57.107400200583676L122.06271634615385,57.399060357700634L122.23406250000001,57.327032479372846L122.25548076923077,57.2525109594518L122.44824519230768,57.21261269395997L122.74810096153846,57.22028543732379L122.89802884615385,56.766059030185986L123.36923076923077,57.214339061216826L123.51915865384616,57.31696200370783L123.64766826923078,57.24224866520271L123.73334134615385,57.209255868738296L123.75475961538461,57.237740928476455L124.33305288461538,56.7471648996526L124.39730769230769,56.59380594166838L124.4615625,56.63101874698286L124.54723557692307,56.45982066067778L124.88992788461539,56.25304022702299L124.93276442307692,56.30885943499473L124.97560096153846,56.31816263632336L124.99701923076923,56.29965214295816L125.0184375,56.234913370825986L125.18978365384616,56.226377443833734L126.00367788461539,55.68794267827809L126.2821153846154,55.642481673847485L126.60338942307692,55.26143405654208L127.01033653846153,54.69883014939044L127.09600961538462,54.508929751136044L127.24593750000001,54.40141543475059L127.33161057692307,54.59294629096979L127.43870192307692,54.55822712724854L128.10266826923078,54.504517923701854L128.33826923076924,54.706790620630386L129.02365384615385,54.55784349008035L129.5376923076923,54.68338875337076L129.83754807692307,54.63946229761292L129.94463942307692,54.53127661618315L130.22307692307692,54.805864919315624L130.24449519230768,54.71638154983515L130.41584134615385,54.60570222681214L130.45867788461538,54.54077163609587L130.56576923076923,54.65950733965089L131.3582451923077,54.45665918697004L131.44391826923078,54.476512410423915L131.52959134615386,54.46011192148377L131.7651923076923,54.854874567551995L131.78661057692307,54.84154317595736L131.82944711538462,54.886620543219784L131.8508653846154,54.94483748349272L132.53625,55.332119204781215L132.77185096153846,55.22153579105024L132.8146875,55.12601013617077L132.92177884615384,55.0610795454545L132.96461538461537,55.00075260075651L133.07170673076925,54.93649337508456L133.20021634615387,54.928436994552555L133.35014423076922,55.146246996792826L133.6285817307692,55.082179589704985L133.94985576923077,54.96075842597262L134.1426201923077,55.0154267224398L134.206875,55.07767185297874L134.84942307692307,55.03671858527438L135.34204326923077,55.593855662779326L135.36346153846154,55.613517067649106L135.42771634615383,55.57659199021075L135.4705528846154,55.61581889065825L135.55622596153847,55.757668733596745L135.6847355769231,55.715372735803726L136.2844471153846,55.50139910524537L136.45579326923078,55.561246503483105L136.94841346153845,55.65753943269898L137.1411778846154,55.55155966498629L137.16259615384615,55.4791481494903L137.46245192307694,55.558465134013744L137.61237980769232,55.53765281763938L138.06216346153846,55.5354469039223L138.2549278846154,55.40395526452493L138.3191826923077,55.45852765170005L138.36201923076922,55.435988968068855L139.32584134615385,54.88556554100726L139.43293269230767,54.91827060959552L139.45435096153847,54.936109737916375L139.6899519230769,55.103663271123665L139.73278846153846,54.99729986624279L140.20399038461537,54.62708999893878L140.67519230769233,54.45953646573149L141.46766826923078,54.61040178212248L142.51716346153847,54.71772427992382L142.81701923076923,54.81852494586592L144.01644230769233,54.59620720689942L144.16637019230768,54.45502872900524L144.38055288461538,54.312891158190595L144.63757211538461,54.43028413165693L144.7018269230769,54.428174127231884L144.74466346153847,54.38491903651838L144.76608173076923,54.37590356306591L145.25870192307693,54.392975417050394L145.4300480769231,54.19837546348566L146.35103365384614,53.633757461201L147.0792548076923,53.4013692465695L147.35769230769233,53.343631852756786L147.37911057692307,53.335575472224804L147.4219471153846,53.34305639700451L148.83555288461537,53.72055537050416L148.94264423076925,53.84044198556375L149.00689903846154,53.81646466255182L149.17824519230768,53.61668560721652L149.54235576923077,53.59673647447061L149.7351201923077,53.59414692358532L149.88504807692306,53.40578107400369L150.0135576923077,53.36003234169696L150.1420673076923,53.33672638372936L150.913125,53.11191500316963L151.08447115384615,53.118724562904994L151.57709134615385,52.80020980401468L151.61992788461538,52.87233359163453L151.64134615384614,52.86523630402301L152.32673076923078,52.83109259605402L152.3695673076923,52.81699393012301L152.7979326923077,52.361232974312465L152.90502403846153,52.369577082720625L152.94786057692306,52.31394969333296L152.99069711538462,52.3005223924463L153.5475721153846,52.64713857390658L154.34004807692307,52.58374253186308L154.4685576923077,52.6051303039897L154.68274038461539,52.47766685485834L154.76841346153847,52.4717204787514L154.85408653846153,52.42520447210827L155.1539423076923,52.314045602625015L155.32528846153846,52.2424013614654L155.925,52.42261492122297L155.96783653846154,52.39000576192677L156.11776442307692,52.20672310482368L156.28911057692306,52.077533288435454L156.31052884615383,52.03178455612872L156.37478365384615,52.013178153471465L156.67463942307694,51.946521195498335L156.9744951923077,51.88053560256952L157.06016826923076,51.95361848310986L157.1030048076923,51.90249883044844L157.3814423076923,51.862696474248665L157.61704326923075,51.8158927397294L157.63846153846154,51.809946363622444L157.7455528846154,51.87621968442738L157.78838942307692,51.921968416734124L157.85264423076924,51.903937469829174L158.6451201923077,51.571803591468075L159.03064903846152,51.69389612024476L159.43759615384616,51.846008257432366L159.56610576923075,51.8485018990256L159.78028846153848,51.90211519328025L160.0801442307692,52.04291003400624L160.46567307692308,52.04895231940524L160.52992788461538,52.03168864683666L161.25814903846154,52.16375574198631L161.32240384615383,52.16461892561474L161.51516826923077,52.14917752959506L161.64367788461539,52.15090389685192L161.7507692307692,52.23012497208331L162.0292067307692,52.263309587131786L162.13629807692308,52.1456288857893L162.4789903846154,51.94939847425976L162.58608173076922,51.95707121762358L162.69317307692307,51.89405881274824L162.77884615384616,51.942588914524364L163.12153846153845,52.117911100387516L163.4213942307692,52.12788566676048L163.8497596153846,52.0180695273659L164.10677884615384,51.95285120877348L164.36379807692308,51.9742389809001L165.1134375,51.97462261806831L165.26336538461538,51.95438575744623L165.37045673076923,51.92781888354902L165.41329326923076,51.88341288133096L165.45612980769232,51.8052468083121L165.58463942307694,51.790764505212906L165.6703125,51.80352044105524L166.0130048076923,51.770623553882885L166.24860576923078,51.763909903439554L166.5698798076923,51.753263972022275L166.7626442307692,51.657450589266645L167.12675480769232,51.70319932157338L167.5337019230769,51.83651323751965L167.74788461538463,51.8837006092071L167.87639423076922,51.90201928398822L167.98348557692307,51.94172573089594L168.02632211538463,51.915254766290786L168.15483173076922,51.90106019106773L168.34759615384615,51.77484356273298L168.69028846153844,51.74338531494135L169.52560096153846,51.79018904946063L169.5684375,51.79623133485963L169.6326923076923,51.79738224636421L169.86829326923078,51.90153973752797L170.01822115384613,51.80399998751548L170.8321153846154,51.68257882378314L171.1748076923077,51.65275103395631L171.28189903846155,51.61342822421675L171.32473557692308,51.572954502972635L171.3889903846154,51.558855837041634L171.75310096153845,51.52509576624085L171.96728365384615,51.44769696755838L171.98870192307692,51.4430933215401L172.30997596153844,51.3890004808252L172.52415865384614,51.38871275294905L173.23096153846154,51.14817224849348L173.72358173076924,51.21051328832448L173.87350961538462,51.23899834806264L173.9377644230769,51.24053289673541L174.06627403846156,51.16917638345193L174.88016826923078,50.987907821481826L175.15860576923077,51.034519737417L175.18002403846154,51.030203819274846L175.2228605769231,50.99222373962397L175.35137019230768,50.99567647413769L175.415625,51.02665517546908L175.80115384615385,51.02224334803489L176.1866826923077,51.00334921750151L176.70072115384613,50.930554064837324L176.78639423076922,50.971219604665535L177.04341346153845,51.07806255600665L177.2361778846154,51.12572947415434L177.8358894230769,50.993950106880824L177.96439903846155,50.98320826617149L178.52127403846154,51.01629697192793L178.6069471153846,50.98570190776472L178.64978365384616,50.9355413480238L178.92822115384615,50.91031720421527L179.0353125,51.001335122368495L179.2280769230769,50.908974474126595L179.44225961538461,50.99318283254445L179.6136057692308,50.91914085908365L180.29899038461537,50.941583633422795L180.44891826923077,50.899767182090024L180.68451923076924,50.71955362233244L180.7059375,50.70200222188771L181.30564903846155,50.72808954932467L181.3913221153846,50.67188670418475L181.43415865384614,50.67764126170759L181.69117788461537,50.57722423293368L182.20521634615383,21.837621233679968L182.46223557692306,25.618461435491337L182.63358173076924,21.305516481399476L182.76209134615382,27.061992190100867L182.99769230769232,33.918931115757275L183.16903846153846,37.17150293697004L183.21187500000002,38.06691208752714L183.3403846153846,33.69037927280767L183.46889423076922,33.918931115757275L184.06860576923077,27.645504322918924L184.21853365384615,28.238703294233797L184.26137019230768,28.88158327882935L184.30420673076924,28.063285199078592L184.36846153846156,29.68626223910933L185.03242788461537,33.310482567006844L185.05384615384614,32.9720186753706L185.16093750000002,32.7366572726856L185.46079326923078,34.6232889565554L185.5036298076923,34.64295036142518L185.52504807692307,34.342178821563664L186.81014423076925,37.79011787067754L186.93865384615384,37.52780595692717L187.00290865384616,37.29292410070241L187.55978365384615,36.595855366099904L187.58120192307692,36.78920849886802L187.64545673076924,36.78249484842469L187.666875,36.5883744413202L188.37367788461538,37.73861458084796L188.39509615384617,37.73343547907737L188.95197115384616,35.42374790798528L189.31608173076924,34.86958401853383L189.4017548076923,34.73857192559671L189.57310096153847,34.62865987691008L189.6801923076923,34.08581328392023L189.70161057692306,34.091759660027186L189.8301201923077,33.711095679889965L190.25848557692308,32.00323891639704L190.53692307692307,32.39512428370384L190.6654326923077,31.826574000445234L191.008125,31.031773697246145L191.20088942307692,30.080928975885517L191.24372596153847,30.226711099797978L191.26514423076924,30.00669518384062L192.48598557692307,30.525660363110575L193.34271634615385,28.952939792112826L193.40697115384617,28.80428038943892L193.42838942307694,29.00760808858L193.47122596153847,28.845905022187615L193.77108173076925,28.942293860695525L193.9424278846154,28.50341294028537L194.43504807692307,28.46188421682873L194.45646634615383,28.38832178982817L194.8419951923077,29.550550590861867L195.3988701923077,29.989623329856116L195.57021634615384,29.74965828115285L195.82723557692307,29.400932095267493L195.87007211538463,29.500006393952752L196.2770192307692,29.237502661618265L196.29843749999998,29.172380252317904L196.74822115384617,29.680795409462615L196.89814903846153,29.238749482414885L197.0694951923077,29.6769590377807L197.09091346153843,29.68626223910933L197.4121875,29.822645252401127L197.69062499999998,29.178518447008955L197.71204326923078,29.18820528550577L198.2475,29.28718367489897L198.71870192307694,28.577934460206414L198.84721153846152,28.18729591369623L198.91146634615384,28.026168303056146L198.9328846153846,27.97274682738559L199.0185576923077,27.63341975212091L199.12564903846155,27.68712895566762L199.2327403846154,27.55218458175653L200.26081730769232,26.798433455553877L200.32507211538461,26.772633855993046L200.56067307692308,26.48528961701822L200.7534375,25.894296559420454L200.86052884615384,25.781219504096228L201.28889423076922,26.181353070519133L201.58875,26.44548726081842L201.69584134615386,26.334136572751078L202.5739903846154,25.654331510717167L202.65966346153846,25.802703185514925L203.30221153846153,25.813157298348113L203.58064903846153,25.747459433295447L203.9447596153846,25.675431554967656L204.13752403846155,25.66977290673685L204.33028846153846,25.712548450990106L204.5230528846154,25.467020663348066L204.65156249999998,25.38511412793935L204.67298076923078,25.395376422188445L204.84432692307692,25.1458204442804L205.65822115384614,24.751441435380364L205.7653125,24.80313654379406L206.02233173076922,24.745686877857498L206.06516826923078,24.7213259176774L206.08658653846155,24.686702663248187L206.21509615384613,24.391397953033387L206.90048076923077,24.153734727339266L206.98615384615385,24.1087532693689L207.6501201923077,23.454651897603764L207.7786298076923,23.727705652063495L208.0570673076923,23.57137350602579L208.16415865384613,23.499441536990034L208.29266826923077,23.397489959543353L208.72103365384615,23.643593202937673L208.89237980769232,23.603407209569706L208.93521634615385,23.503277908671926L209.40641826923078,23.643401384353577L209.4492548076923,23.702289689670852L209.66343750000001,23.643305475061542L209.89903846153845,23.788224415345574L209.98471153846154,23.74918933348217L210.3488221153846,23.795321702957093L210.41307692307691,23.861403205177947L210.6272596153846,23.80318626490501L211.31264423076922,23.983208006078495L211.4197355769231,24.101176435297138L211.56966346153845,24.053125879981238L211.80526442307692,24.366653355685102L211.93377403846154,24.633760734037875L212.08370192307692,24.763334187594282L212.42639423076923,24.785968780517518L212.51206730769232,24.959564599123823L212.91901442307693,24.8635593977841L213.47588942307692,24.207635749470047L213.5615625,24.240244908766268L213.75432692307692,24.41499163887711L213.88283653846156,24.327234636653493L213.90425480769233,24.369051087986282L213.98992788461538,24.33327692205251L214.3326201923077,24.25913903929965L214.91091346153846,23.944940198551468L215.25360576923077,23.811914010481356L215.44637019230768,23.980234818025018L215.59629807692306,24.38813703710378L215.7033894230769,24.36166607249861L216.71004807692307,24.674618092450174L216.79572115384616,24.73408185351973L217.4596875,24.857900749553274L217.63103365384615,24.882261709733392L217.6524519230769,24.85885984247376L217.69528846153847,24.8120561079545L217.71670673076923,24.84907709468489L218.20932692307693,24.676152641122943L218.27358173076922,24.666849439794316L218.33783653846154,24.687278119000467L218.48776442307692,24.64603712341996L218.55201923076925,24.63682983138339L218.65911057692307,24.7295741167935L218.74478365384616,24.69763632254162L218.93754807692306,24.69936268979848L218.95896634615383,24.706076340241815L219.04463942307692,24.674426273866082L219.21598557692306,24.49574726278127L219.60151442307694,24.329152822494446L219.6229326923077,24.33586647293778L220.43682692307692,24.1105755459178L220.69384615384615,24.05159133130849L220.7366826923077,24.20427892424838L220.88661057692306,24.111918276006474L221.1007932692308,24.04036994413891L221.12221153846153,24.102135528217605L221.20788461538461,24.101176435297138L221.25072115384614,24.059455893256384L221.33639423076923,24.03106674281028L221.40064903846152,23.96882161227134L221.59341346153846,23.78333304145114L221.74334134615384,23.80309035561295L221.89326923076925,23.768658919767855L222.02177884615384,23.781702583486332L222.0431971153846,23.734515211798865L222.17170673076924,23.774509386582757L222.27879807692307,23.861115477301794L222.4929807692308,23.846633174202605L222.70716346153847,23.885188709605764L222.83567307692306,23.791964877735428L223.1569471153846,23.862841844558655L223.58531250000001,23.834548603404592L223.6495673076923,23.801843534816335L223.69240384615384,23.814599470658685L223.97084134615383,23.639948649839877L224.1421875,23.767891645431458L224.27069711538462,23.678216457366883L224.31353365384615,23.63985274054782L224.65622596153847,23.56398849053812L224.67764423076923,23.545094360004715L224.69906250000003,23.55142437327986L225.34161057692307,23.63975683125578L225.72713942307692,23.701330596750385L225.91990384615383,23.707181063565287L226.11266826923077,23.56629031354726L226.32685096153847,23.676106452941834L226.4339423076923,23.633522727272673L226.90514423076925,23.861690933054096L227.0764903846154,23.860827749425663L227.20499999999998,23.80050080472768L227.48343749999998,23.61577950824385L228.19024038461538,23.808653094551726L228.51151442307693,23.84797590429128L228.57576923076925,23.841837709600224L228.5971875,23.801268079064055L228.6614423076923,23.725979284806634L228.85420673076925,23.869363676417898L228.9398798076923,23.937938820231984L229.0255528846154,23.89151872288091L229.28257211538462,24.072499556974886L229.3039903846154,24.055235884406287L229.45391826923077,24.048234506086825L229.9679567307692,24.673179453069462L230.01079326923076,24.660998972979414L230.3320673076923,24.648530765013216L230.35348557692308,24.65370986678378L230.4819951923077,24.639898928728925L230.54625,24.61074250394643L230.73901442307692,24.65668305483726L231.0817067307692,24.51771049066019L231.14596153846153,24.53305597738781L231.29588942307694,24.481073141097962L231.61716346153844,24.296255935322097L231.85276442307693,24.179630236192132L232.13120192307693,24.203511649912006L232.40963942307692,24.184233882210417L232.77374999999998,24.100696888836893L232.9236778846154,24.051687240600526L233.330625,23.6860810193148L233.35204326923076,23.691260121085364L233.50197115384617,23.64397684010588L233.56622596153844,23.680518280376027L233.63048076923076,23.654430952939066L233.8232451923077,23.701138778166293L233.84466346153846,23.74794251268555L234.25161057692307,23.824382218447553L234.42295673076922,23.823806762695252L234.5086298076923,23.885092800313725L234.53004807692307,23.849030906503803L234.55146634615386,23.833589510484124L234.67997596153845,23.781894402070428L234.76564903846153,23.802131262692484L235.04408653846153,23.846920902078754L235.17259615384617,23.876844601197625L235.34394230769232,23.87607732686125L235.47245192307693,23.88557234677397L236.97173076923076,23.61395723169495L237.55002403846154,23.5704144131053L238.21399038461539,23.64311365647745L238.29966346153844,23.70056332241399L238.32108173076924,23.666995070197302L238.57810096153844,23.762137087908613L239.19923076923078,23.520445671948465L239.67043269230768,23.56811259009616L239.7132692307692,23.558809388767532L240.07737980769232,23.582498983903314L240.22730769230768,23.670543714003085L240.27014423076923,23.661240512674457L240.4414903846154,23.75340934233227L241.38389423076922,23.69701467860823L241.51240384615386,23.669776439666688L241.61949519230768,23.72847292639987L241.9621875,23.709962433034672L242.1121153846154,23.777003028175994L242.81891826923078,23.86840458349743L242.94742788461537,23.78832032463761L243.0116826923077,23.783716678619324L243.03310096153845,23.8057758157903L243.67564903846156,23.969972523775922L244.08259615384614,23.894012364474165L244.27536057692308,23.793595335700232L244.51096153846154,23.737008853392123L245.1535096153846,23.812777194109785L245.28201923076924,23.923072879964604L245.3034375,23.995388486168547L245.34627403846156,23.9866607405922L245.4319471153846,23.91818150607017L246.3529326923077,23.77585211667143L246.71704326923077,23.66267915205517L247.20966346153847,23.443430510434183L247.42384615384614,23.35346759449346L247.5309375,23.357975331219706L247.63802884615387,23.329682090065642L247.8950480769231,23.461749185215286L248.06639423076922,23.46222873167553L248.38766826923077,23.345315304669413L248.7731971153846,23.37121081352228L248.8374519230769,23.367470351132425L248.90170673076923,23.347521218386518L249.18014423076923,23.352700320157084L249.39432692307693,23.37763673608948L249.43716346153846,23.385789025913528L249.8226923076923,23.37926719405429L250.76509615384614,23.445444605567175L250.97927884615385,23.360085335644754L251.12920673076923,23.3255579905076L251.23629807692305,23.29879929802628L251.57899038461537,23.161073554645828L251.72891826923077,23.158196275884404L251.75033653846154,23.14678307013073L251.96451923076924,23.10976208340032L252.00735576923077,23.10237706791265L252.13586538461539,22.988053191791824L252.6713221153846,22.89003389531911L252.82125000000002,22.91823122718112L252.9497596153846,22.88149796832686L253.20677884615384,22.823664665222108L253.6565625,22.59185190634289L254.1491826923077,22.655056129802297L254.3419471153846,22.646424293518006L254.36336538461538,22.635586543516634L254.83456730769228,22.53104541518466L254.92024038461537,22.532388145273334L255.07016826923078,22.471965291283293L255.37002403846157,22.557516379789828L256.33384615384614,22.647575205022587L256.5266105769231,22.65371339971364L256.8050480769231,22.63213380900291L257.51185096153847,22.645081563429354L257.53326923076924,22.620432875373083L257.64036057692306,22.682390278035893L257.79028846153847,22.638080185109867L257.81170673076923,22.64191655679178L258.19723557692305,22.6116092205047L258.4328365384615,22.554830919612478L259.05396634615386,22.60892376032737L259.1610576923077,22.627817890860754L259.5680048076923,22.546294992620243L259.6965144230769,22.596647370945266L259.7179326923077,22.60038783333512L259.8464423076923,22.56749094616277L259.88927884615384,22.58878280899735L260.44615384615383,22.63059926033014L260.6817548076923,22.643834742632734L260.81026442307694,22.570272315632156L261.15295673076923,22.397827408530432L261.40997596153846,22.49690170721569L261.4956490384615,22.49805261872025L261.58132211538464,22.431587479331213L261.7098317307692,22.426792014728836L261.83834134615387,22.408473339947733L261.85975961538463,22.398690592158864L261.8811778846154,22.40243105454874L262.1381971153846,22.39293603463602L262.3737980769231,22.299328565597474" style="fill: none;" fill="none"></path></g></g></g></g></g></g><g transform="translate(51, 177)" clip-path="url(#clip_1)"><clipPath id="clip_1"><rect width="278" height="23"></rect></clipPath><g><g><line x1="0" y1="0" x2="0" y2="5" style="visibility: inherit;" fill="rgb(0, 0, 0)" stroke="rgb(204, 204, 204)" stroke-width="1px"></line><line x1="21.418269230769234" y1="0" x2="21.418269230769234" y2="5" style="visibility: inherit;" fill="rgb(0, 0, 0)" stroke="rgb(204, 204, 204)" stroke-width="1px"></line><line x1="42.83653846153847" y1="0" x2="42.83653846153847" y2="5" style="visibility: inherit;" fill="rgb(0, 0, 0)" stroke="rgb(204, 204, 204)" stroke-width="1px"></line><line x1="64.2548076923077" y1="0" x2="64.2548076923077" y2="5" style="visibility: inherit;" fill="rgb(0, 0, 0)" stroke="rgb(204, 204, 204)" stroke-width="1px"></line><line x1="85.67307692307693" y1="0" x2="85.67307692307693" y2="5" style="visibility: inherit;" fill="rgb(0, 0, 0)" stroke="rgb(204, 204, 204)" stroke-width="1px"></line><line x1="107.09134615384616" y1="0" x2="107.09134615384616" y2="5" style="visibility: inherit;" fill="rgb(0, 0, 0)" stroke="rgb(204, 204, 204)" stroke-width="1px"></line><line x1="128.5096153846154" y1="0" x2="128.5096153846154" y2="5" style="visibility: inherit;" fill="rgb(0, 0, 0)" stroke="rgb(204, 204, 204)" stroke-width="1px"></line><line x1="149.9278846153846" y1="0" x2="149.9278846153846" y2="5" style="visibility: inherit;" fill="rgb(0, 0, 0)" stroke="rgb(204, 204, 204)" stroke-width="1px"></line><line x1="171.34615384615387" y1="0" x2="171.34615384615387" y2="5" style="visibility: inherit;" fill="rgb(0, 0, 0)" stroke="rgb(204, 204, 204)" stroke-width="1px"></line><line x1="192.76442307692307" y1="0" x2="192.76442307692307" y2="5" style="visibility: inherit;" fill="rgb(0, 0, 0)" stroke="rgb(204, 204, 204)" stroke-width="1px"></line><line x1="214.18269230769232" y1="0" x2="214.18269230769232" y2="5" style="visibility: inherit;" fill="rgb(0, 0, 0)" stroke="rgb(204, 204, 204)" stroke-width="1px"></line><line x1="235.60096153846155" y1="0" x2="235.60096153846155" y2="5" style="visibility: inherit;" fill="rgb(0, 0, 0)" stroke="rgb(204, 204, 204)" stroke-width="1px"></line><line x1="257.0192307692308" y1="0" x2="257.0192307692308" y2="5" style="visibility: inherit;" fill="rgb(0, 0, 0)" stroke="rgb(204, 204, 204)" stroke-width="1px"></line><line x1="278.4375" y1="0" x2="278.4375" y2="5" style="visibility: inherit;" fill="rgb(0, 0, 0)" stroke="rgb(204, 204, 204)" stroke-width="1px"></line></g><g transform="translate(0, 8)"><text x="0" y="0" dx="0em" dy="0.95em" style="text-anchor: middle; visibility: hidden; font-family: Roboto, sans-serif; font-size: 12px; font-weight: 200;" fill="rgb(33, 33, 33)" stroke="none" stroke-width="1px">-1k</text><text x="21.418269230769234" y="0" dx="0em" dy="0.95em" style="text-anchor: middle; visibility: inherit; font-family: Roboto, sans-serif; font-size: 12px; font-weight: 200;" fill="rgb(33, 33, 33)" stroke="none" stroke-width="1px">0</text><text x="42.83653846153847" y="0" dx="0em" dy="0.95em" style="text-anchor: middle; visibility: hidden; font-family: Roboto, sans-serif; font-size: 12px; font-weight: 200;" fill="rgb(33, 33, 33)" stroke="none" stroke-width="1px">1k</text><text x="64.2548076923077" y="0" dx="0em" dy="0.95em" style="text-anchor: middle; visibility: inherit; font-family: Roboto, sans-serif; font-size: 12px; font-weight: 200;" fill="rgb(33, 33, 33)" stroke="none" stroke-width="1px">2k</text><text x="85.67307692307693" y="0" dx="0em" dy="0.95em" style="text-anchor: middle; visibility: hidden; font-family: Roboto, sans-serif; font-size: 12px; font-weight: 200;" fill="rgb(33, 33, 33)" stroke="none" stroke-width="1px">3k</text><text x="107.09134615384616" y="0" dx="0em" dy="0.95em" style="text-anchor: middle; visibility: inherit; font-family: Roboto, sans-serif; font-size: 12px; font-weight: 200;" fill="rgb(33, 33, 33)" stroke="none" stroke-width="1px">4k</text><text x="128.5096153846154" y="0" dx="0em" dy="0.95em" style="text-anchor: middle; visibility: hidden; font-family: Roboto, sans-serif; font-size: 12px; font-weight: 200;" fill="rgb(33, 33, 33)" stroke="none" stroke-width="1px">5k</text><text x="149.9278846153846" y="0" dx="0em" dy="0.95em" style="text-anchor: middle; visibility: inherit; font-family: Roboto, sans-serif; font-size: 12px; font-weight: 200;" fill="rgb(33, 33, 33)" stroke="none" stroke-width="1px">6k</text><text x="171.34615384615387" y="0" dx="0em" dy="0.95em" style="text-anchor: middle; visibility: hidden; font-family: Roboto, sans-serif; font-size: 12px; font-weight: 200;" fill="rgb(33, 33, 33)" stroke="none" stroke-width="1px">7k</text><text x="192.76442307692307" y="0" dx="0em" dy="0.95em" style="text-anchor: middle; visibility: inherit; font-family: Roboto, sans-serif; font-size: 12px; font-weight: 200;" fill="rgb(33, 33, 33)" stroke="none" stroke-width="1px">8k</text><text x="214.18269230769232" y="0" dx="0em" dy="0.95em" style="text-anchor: middle; visibility: hidden; font-family: Roboto, sans-serif; font-size: 12px; font-weight: 200;" fill="rgb(33, 33, 33)" stroke="none" stroke-width="1px">9k</text><text x="235.60096153846155" y="0" dx="0em" dy="0.95em" style="text-anchor: middle; visibility: inherit; font-family: Roboto, sans-serif; font-size: 12px; font-weight: 200;" fill="rgb(33, 33, 33)" stroke="none" stroke-width="1px">10k</text><text x="257.0192307692308" y="0" dx="0em" dy="0.95em" style="text-anchor: middle; visibility: hidden; font-family: Roboto, sans-serif; font-size: 12px; font-weight: 200;" fill="rgb(33, 33, 33)" stroke="none" stroke-width="1px">11k</text><text x="278.4375" y="0" dx="0em" dy="0.95em" style="text-anchor: middle; visibility: hidden; font-family: Roboto, sans-serif; font-size: 12px; font-weight: 200;" fill="rgb(33, 33, 33)" stroke="none" stroke-width="1px">12k</text></g><line x1="0" y1="0" x2="278.4375" y2="0" fill="rgb(0, 0, 0)" stroke="rgb(204, 204, 204)" stroke-width="1px"></line></g></g></g></g></svg>